<?xml version="1.0" encoding="iso-8859-1"?>
<!-- Generator: Adobe Illustrator 19.0.0, SVG Export Plug-In . SVG Version: 6.00 Build 0)  -->
<svg version="1.1" id="Capa_1" xmlns="http://www.w3.org/2000/svg" xmlns:xlink="http://www.w3.org/1999/xlink" x="0px" y="0px"
	 viewBox="0 0 512 512" style="enable-background:new 0 0 512 512;" xml:space="preserve">
<g>
	<g>
		<path d="M271,393.076V377c0-15.906,6.445-32.232,16.819-42.606l4.595-4.595C347.336,326.472,391,280.742,391,225
			c0-8.284-6.716-15-15-15c-55.743,0-101.471,43.665-104.798,98.585c-5.407,5.407-9.818,9.482-15.202,17.734
			c-5.402-8.279-9.852-12.385-15.202-17.735C237.471,253.664,191.743,210,136,210c-8.284,0-15,6.716-15,15
			c0,55.743,43.664,101.472,98.585,104.798l4.595,4.595C234.555,344.768,241,361.094,241,377v16.076
			c-50.817,7.301-90,51.119-90,103.924c0,8.284,6.716,15,15,15h180c8.284,0,15-6.716,15-15C361,444.195,321.817,400.377,271,393.076
			z M359.074,241.926c-6.435,27.791-28.357,49.714-56.148,56.148C309.36,270.283,331.283,248.36,359.074,241.926z M152.926,241.926
			c27.791,6.434,49.714,28.357,56.148,56.148C181.283,291.64,159.36,269.717,152.926,241.926z M182.507,482
			c6.97-34.191,37.274-60,73.493-60s66.523,25.809,73.493,60H182.507z"/>
	</g>
</g>
<g>
	<g>
		<path d="M222.164,64.982C219.319,61.811,215.26,60,211,60s-8.319,1.811-11.164,4.982C184.706,81.846,151,123.518,151,150
			c0,33.084,26.916,60,60,60s60-26.916,60-60C271,123.801,237.793,82.402,222.164,64.982z M211,180c-16.542,0-30-13.458-30-30
			c0-9.56,14.095-31.886,29.994-51.767C226.935,118.222,241,140.708,241,150C241,166.542,227.542,180,211,180z"/>
	</g>
</g>
<g>
	<g>
		<path d="M356.729,55.851c-0.174-0.37-0.363-0.733-0.567-1.087l-27.158-47.24c-2.674-4.651-7.628-7.52-12.992-7.524
			c-0.004,0-0.008,0-0.012,0c-5.36,0-10.313,2.86-12.992,7.504L277.69,51.385C259.245,81.269,280.852,120,316,120
			C348.822,120,370.785,85.703,356.729,55.851z M316,90c-8.271,0-15-6.729-15-15c0-5.2,0.975-5.677,14.977-29.945
			C330.431,70.197,331,70.066,331,75C331,83.271,324.271,90,316,90z"/>
	</g>
</g>
<g>
</g>
<g>
</g>
<g>
</g>
<g>
</g>
<g>
</g>
<g>
</g>
<g>
</g>
<g>
</g>
<g>
</g>
<g>
</g>
<g>
</g>
<g>
</g>
<g>
</g>
<g>
</g>
<g>
</g>
</svg>
