<?xml version="1.0" encoding="iso-8859-1"?>
<!-- Generator: Adobe Illustrator 19.0.0, SVG Export Plug-In . SVG Version: 6.00 Build 0)  -->
<svg version="1.1" id="Capa_1" xmlns="http://www.w3.org/2000/svg" xmlns:xlink="http://www.w3.org/1999/xlink" x="0px" y="0px"
	 viewBox="0 0 512 512" style="enable-background:new 0 0 512 512;" xml:space="preserve">
<g>
	<g>
		<path d="M346,0H166c-8.284,0-15,6.716-15,15c0,57.897,47.103,105,105,105c57.897,0,105-47.103,105-105C361,6.716,354.284,0,346,0z
			 M256,90c-36.219,0-66.523-25.809-73.493-60h146.986C322.523,64.191,292.219,90,256,90z"/>
	</g>
</g>
<g>
	<g>
		<path d="M106,0H76c-8.284,0-15,6.716-15,15s6.716,15,15,15h30c8.284,0,15-6.716,15-15S114.284,0,106,0z"/>
	</g>
</g>
<g>
	<g>
		<path d="M436,0h-30c-8.284,0-15,6.716-15,15s6.716,15,15,15h30c8.284,0,15-6.716,15-15S444.284,0,436,0z"/>
	</g>
</g>
<g>
	<g>
		<path d="M139.086,82.5c-4.143-7.176-13.316-9.631-20.49-5.49l-25.98,15c-7.175,4.142-9.633,13.316-5.49,20.49
			c4.142,7.174,13.315,9.632,20.49,5.49l25.98-15C140.771,98.848,143.229,89.674,139.086,82.5z"/>
	</g>
</g>
<g>
	<g>
		<path d="M188.5,131.914c-7.174-4.144-16.349-1.685-20.49,5.49l-15,25.981c-4.143,7.174-1.685,16.348,5.49,20.49
			c7.168,4.14,16.345,1.689,20.49-5.49l15-25.981C198.133,145.23,195.675,136.056,188.5,131.914z"/>
	</g>
</g>
<g>
	<g>
		<path d="M256,150c-8.284,0-15,6.716-15,15v30c0,8.284,6.716,15,15,15s15-6.716,15-15v-30C271,156.716,264.284,150,256,150z"/>
	</g>
</g>
<g>
	<g>
		<path d="M358.99,163.385l-15-25.981c-4.142-7.175-13.315-9.632-20.49-5.49c-7.175,4.142-9.633,13.316-5.49,20.49l15,25.981
			c4.142,7.174,13.315,9.632,20.49,5.49C360.675,179.733,363.133,170.559,358.99,163.385z"/>
	</g>
</g>
<g>
	<g>
		<path d="M419.385,92.01l-25.981-15c-7.176-4.143-16.349-1.684-20.49,5.49c-4.143,7.175-1.684,16.349,5.49,20.49l25.981,15
			c7.168,4.14,16.345,1.689,20.49-5.49C429.018,105.325,426.559,96.151,419.385,92.01z"/>
	</g>
</g>
<g>
	<g>
		<path d="M287.819,334.394l4.595-4.595C347.336,326.472,391,280.742,391,225c0-8.284-6.716-15-15-15
			c-55.743,0-101.471,43.665-104.798,98.585c-5.43,5.43-9.869,9.577-15.202,17.425c-5.336-7.853-9.828-12.052-15.202-17.426
			C237.471,253.664,191.743,210,136,210c-8.284,0-15,6.716-15,15c0,55.743,43.664,101.472,98.585,104.798l4.595,4.595
			c10.817,10.817,16.784,25.191,16.816,40.484l-0.567,18.139C189.405,400.131,150,444.047,150,497c0,8.284,6.716,15,15,15h180
			c8.284,0,15-6.716,15-15c0-52.652-38.957-96.372-89.56-103.862l0.552-17.669c0.002-0.077-0.006-0.151-0.004-0.228
			c0.001-0.081,0.012-0.16,0.012-0.241C271,359.661,276.974,345.24,287.819,334.394z M359.074,241.926
			c-6.434,27.791-28.357,49.714-56.148,56.148C309.361,270.283,331.283,248.36,359.074,241.926z M152.926,241.926
			c27.791,6.434,49.714,28.357,56.148,56.148C181.283,291.64,159.36,269.717,152.926,241.926z M328.493,482H181.507
			c6.97-34.191,37.274-60,73.493-60S321.523,447.809,328.493,482z"/>
	</g>
</g>
<g>
</g>
<g>
</g>
<g>
</g>
<g>
</g>
<g>
</g>
<g>
</g>
<g>
</g>
<g>
</g>
<g>
</g>
<g>
</g>
<g>
</g>
<g>
</g>
<g>
</g>
<g>
</g>
<g>
</g>
</svg>
