<?xml version="1.0" encoding="iso-8859-1"?>
<!-- Generator: Adobe Illustrator 19.0.0, SVG Export Plug-In . SVG Version: 6.00 Build 0)  -->
<svg version="1.1" id="Capa_1" xmlns="http://www.w3.org/2000/svg" xmlns:xlink="http://www.w3.org/1999/xlink" x="0px" y="0px"
	 viewBox="0 0 512.001 512.001" style="enable-background:new 0 0 512.001 512.001;" xml:space="preserve">
<g>
	<g>
		<path d="M270.999,333.077v-18.076c0-15.339,5.974-29.76,16.819-40.606l4.595-4.595c54.921-3.327,98.585-49.056,98.585-104.798
			c0-8.284-6.716-15-15-15c-55.743,0-101.471,43.665-104.798,98.585c-5.429,5.429-9.867,9.576-15.2,17.424
			c-5.336-7.853-9.828-12.052-15.202-17.426c-3.327-54.92-49.056-98.584-104.798-98.584c-8.284,0-15,6.716-15,15
			c0,55.743,43.664,101.472,98.585,104.798l4.595,4.595c10.846,10.847,16.819,25.268,16.819,40.607v18.076
			c-50.817,7.301-90,51.119-90,103.924c0,8.284,6.716,15,15,15h180c8.284,0,15-6.716,15-15
			C360.999,384.196,321.816,340.378,270.999,333.077z M359.074,181.927c-6.435,27.791-28.357,49.714-56.148,56.148
			C309.36,210.284,331.283,188.361,359.074,181.927z M152.926,181.927c27.791,6.434,49.714,28.357,56.148,56.148
			C181.283,231.641,159.36,209.718,152.926,181.927z M182.507,422.001c6.97-34.191,37.274-60,73.493-60s66.523,25.809,73.493,60
			H182.507z"/>
	</g>
</g>
<g>
	<g>
		<path d="M505.976,182.983c-7.158-5.346-232.777-173.859-241-180c-5.322-3.976-12.629-3.976-17.951,0
			c-8.211,6.133-230.441,172.113-241,180c-6.638,4.958-8,14.357-3.042,20.994c4.956,6.637,14.355,7.999,20.993,3.042l6.024-4.5V497
			c0,8.284,6.716,15,15,15h422c8.284,0,15-6.716,15-15V202.519l6.024,4.5c6.642,4.961,16.04,3.59,20.993-3.042
			C513.976,197.34,512.613,187.94,505.976,182.983z M452,482.001H60V180.113l196-146.39l196,146.39V482.001z"/>
	</g>
</g>
<g>
</g>
<g>
</g>
<g>
</g>
<g>
</g>
<g>
</g>
<g>
</g>
<g>
</g>
<g>
</g>
<g>
</g>
<g>
</g>
<g>
</g>
<g>
</g>
<g>
</g>
<g>
</g>
<g>
</g>
</svg>
