<?xml version="1.0" encoding="iso-8859-1"?>
<!-- Generator: Adobe Illustrator 19.0.0, SVG Export Plug-In . SVG Version: 6.00 Build 0)  -->
<svg version="1.1" id="Capa_1" xmlns="http://www.w3.org/2000/svg" xmlns:xlink="http://www.w3.org/1999/xlink" x="0px" y="0px"
	 viewBox="0 0 512 512" style="enable-background:new 0 0 512 512;" xml:space="preserve">
<g>
	<g>
		<path d="M436,0H106C81.187,0,61,20.187,61,45v422c0,24.813,20.187,45,45,45h330c8.284,0,15-6.716,15-15c0-19.502,0-462.627,0-482
			C451,6.716,444.284,0,436,0z M91,45c0-8.271,6.729-15,15-15h15v392h-15c-5.259,0-10.305,0.915-15,2.58V45z M421,482H106
			c-8.271,0-15-6.729-15-15s6.729-15,15-15h315V482z M421,422H151V30h270V422z"/>
	</g>
</g>
<g>
	<g>
		<path d="M376,332H196c-8.284,0-15,6.716-15,15s6.716,15,15,15h180c8.284,0,15-6.716,15-15S384.284,332,376,332z"/>
	</g>
</g>
<g>
	<g>
		<path d="M301,213.509v-34.585c50.817-7.301,90-51.119,90-103.924c0-8.284-6.716-15-15-15c-38.151,0-71.612,20.455-90,50.971
			C267.612,80.455,234.151,60,196,60c-8.284,0-15,6.716-15,15c0,52.804,39.183,96.623,90,103.924v34.585
			c-34.192,6.968-60,37.271-60,73.491c0,8.284,6.716,15,15,15h120c8.284,0,15-6.716,15-15C361,250.781,335.192,220.478,301,213.509z
			 M359.074,91.926c-6.435,27.791-28.357,49.714-56.148,56.148C309.36,120.283,331.283,98.36,359.074,91.926z M212.926,91.926
			c27.791,6.434,49.714,28.357,56.148,56.148C241.283,141.64,219.36,119.717,212.926,91.926z M243.57,272
			c6.19-17.461,22.873-30,42.43-30s36.239,12.539,42.43,30H243.57z"/>
	</g>
</g>
<g>
</g>
<g>
</g>
<g>
</g>
<g>
</g>
<g>
</g>
<g>
</g>
<g>
</g>
<g>
</g>
<g>
</g>
<g>
</g>
<g>
</g>
<g>
</g>
<g>
</g>
<g>
</g>
<g>
</g>
</svg>
