<?xml version="1.0" encoding="iso-8859-1"?>
<!-- Generator: Adobe Illustrator 19.0.0, SVG Export Plug-In . SVG Version: 6.00 Build 0)  -->
<svg version="1.1" id="Capa_1" xmlns="http://www.w3.org/2000/svg" xmlns:xlink="http://www.w3.org/1999/xlink" x="0px" y="0px"
	 viewBox="0 0 512.001 512.001" style="enable-background:new 0 0 512.001 512.001;" xml:space="preserve">
<g>
	<g>
		<path d="M503.075,74.917c-17.479-37.48-62.19-53.754-99.669-36.277c-20.033,9.341-34.236,26.063-40.736,45.205l-22.674-31.252
			C329.733,38.446,313.17,30,295.691,30c-10,0-19.375,2.709-27.451,7.412C261.105,15.715,240.664,0,216.61,0
			c-17.864,0-34.586,8.779-44.731,23.484l-20.993,30.43c-0.506-1.318-1.036-2.632-1.62-3.939
			C141.26,32.056,126.4,16.99,108.494,8.641C70.925-8.878,26.346,7.344,8.825,44.917c-26.789,57.451,14.585,154.874,46.378,205.869
			c2.765,4.432,7.599,7.063,12.724,7.062c4.943,0,123.099-19.49,173.028-76.241V300h-135c-8.284,0-15,6.716-15,15v32
			c0,20.61,13.932,38.016,32.87,43.326l27.578,110.313c1.669,6.677,7.669,11.362,14.552,11.362h180
			c6.883,0,12.883-4.685,14.552-11.362l27.578-110.313c18.938-5.31,32.87-22.716,32.87-43.326v-32c0-8.284-6.716-15-15-15h-135
			v-89.289c47.665,55.339,164.897,77.137,173.794,77.137c5.125,0,9.959-2.631,12.724-7.062
			C484.114,238.02,531.336,135.529,503.075,74.917z M229.816,143.938c-8.762-12.991-20.908-23.411-35.477-30.204
			c-7.509-3.5-16.432-0.252-19.934,7.256c-3.501,7.508-0.253,16.433,7.256,19.934c12.873,6.002,22.86,16.321,28.434,29.26
			c-7.079,6.312-15.724,12.391-25.848,18.176c-6.078-11.351-15.606-20.406-27.485-25.945c-7.508-3.5-16.434-0.253-19.935,7.255
			c-3.501,7.508-0.253,16.433,7.255,19.934c5.595,2.609,10.143,6.78,13.192,11.998c-3.802,1.615-7.733,3.198-11.797,4.746
			c-7.46,2.843-14.896,5.388-22.076,7.651c-2.174-1.622-4.503-3.037-6.965-4.186c-7.506-3.503-16.433-0.254-19.935,7.253
			c-0.734,1.573-1.155,3.209-1.319,4.844c-7.676,1.896-14.391,3.351-19.648,4.384c-2.856-5.007-6.045-10.909-9.372-17.474
			c1.276-1.237,2.353-2.724,3.149-4.431c3.501-7.508,0.253-16.433-7.256-19.934c-2.746-1.28-5.635-2.227-8.594-2.852
			c-4.592-10.743-8.996-22.217-12.725-33.875c5.612-0.748,11.329,0.107,16.582,2.558c7.508,3.5,16.433,0.253,19.935-7.255
			c3.501-7.508,0.253-16.433-7.255-19.934c-11.672-5.443-24.485-6.962-36.884-4.509c-2.132-10.871-3.311-21.494-3.135-31.414
			c13.431-3.972,27.669-2.936,40.477,3.035c2.051,0.956,4.206,1.409,6.329,1.409c5.649,0,11.06-3.207,13.604-8.665
			c3.501-7.508,0.253-16.433-7.256-19.934c-14.568-6.794-30.358-9.4-45.942-7.761C48.34,34.519,73.929,25.626,95.811,35.83
			c21.524,10.037,37.312,36.336,26.646,59.584l-27.563,54.128c-3.759,7.383-0.821,16.415,6.561,20.173
			c7.383,3.759,16.414,0.822,20.174-6.561l27.237-53.49l10.706-15.518c12.688-12.234,30.87-15.331,47.444-7.604
			C228.95,96.771,238.513,122.124,229.816,143.938z M219.697,59.355c-10.06-4.691-20.691-7.039-31.265-7.036l8.14-11.798
			C201.117,33.933,208.608,30,216.61,30c13.424,0,24.345,10.921,24.345,24.344v19.823C234.867,68.111,227.711,63.092,219.697,59.355
			z M334.243,482H177.666l-22.5-90h201.576L334.243,482z M390.955,330v17c0,8.271-6.729,15-15,15h-240c-8.271,0-15-6.729-15-15v-17
			H390.955z M270.955,104.963V84.736c0-13.64,11.097-24.736,24.736-24.736c7.899,0,15.384,3.817,20.021,10.21l8.771,12.089
			c-10.754,0.021-21.468,2.375-31.504,7.055C284.621,93.252,277.207,98.554,270.955,104.963z M479.124,148.649
			c-12.504-2.55-25.445-1.046-37.225,4.447c-7.508,3.501-10.757,12.425-7.256,19.934c3.5,7.508,12.426,10.757,19.934,7.256
			c5.41-2.522,11.308-3.36,17.078-2.493c-3.672,11.653-8.023,23.113-12.571,33.838c-2.914,0.626-5.76,1.562-8.466,2.824
			c-7.509,3.501-10.757,12.426-7.256,19.934c0.791,1.696,1.859,3.174,3.125,4.407c-3.318,6.578-6.501,12.487-9.353,17.497
			c-5.256-1.033-11.969-2.487-19.643-4.383c-0.164-1.635-0.585-3.271-1.319-4.844c-3.502-7.508-12.427-10.755-19.935-7.253
			c-2.462,1.148-4.79,2.563-6.964,4.186c-11.464-3.613-22.812-7.699-33.873-12.396c3.049-5.218,7.597-9.39,13.192-11.999
			c7.508-3.501,10.756-12.426,7.255-19.934c-3.502-7.508-12.425-10.757-19.935-7.255c-11.878,5.539-21.407,14.594-27.484,25.946
			c-10.124-5.785-18.769-11.864-25.847-18.176c5.574-12.939,15.56-23.257,28.433-29.26c7.509-3.501,10.757-12.426,7.256-19.934
			c-3.502-7.508-12.429-10.758-19.934-7.256c-14.569,6.793-26.715,17.213-35.477,30.205c-8.703-21.829,0.88-47.174,22.799-57.394
			c16.723-7.799,35.72-4.454,48.729,6.972l11.68,16.099l24.748,53.073c3.501,7.507,12.426,10.756,19.934,7.255
			c7.509-3.501,10.757-12.426,7.256-19.934l-25.269-54.191c-0.011-0.026-0.024-0.051-0.035-0.076l-0.052-0.112
			c-10.322-22.136,0.191-48.963,23.436-59.802c21.691-10.115,47.414-1.385,58.621,19.428c-15.583-1.639-31.373,0.967-45.942,7.761
			c-7.509,3.501-10.757,12.426-7.256,19.934c2.545,5.458,7.955,8.665,13.604,8.665c2.122,0,4.279-0.453,6.329-1.409
			c12.853-5.993,27.151-7.016,40.625-2.993C482.304,127.159,481.191,137.787,479.124,148.649z"/>
	</g>
</g>
<g>
</g>
<g>
</g>
<g>
</g>
<g>
</g>
<g>
</g>
<g>
</g>
<g>
</g>
<g>
</g>
<g>
</g>
<g>
</g>
<g>
</g>
<g>
</g>
<g>
</g>
<g>
</g>
<g>
</g>
</svg>
