<?xml version="1.0" encoding="iso-8859-1"?>
<!-- Generator: Adobe Illustrator 19.0.0, SVG Export Plug-In . SVG Version: 6.00 Build 0)  -->
<svg version="1.1" id="Capa_1" xmlns="http://www.w3.org/2000/svg" xmlns:xlink="http://www.w3.org/1999/xlink" x="0px" y="0px"
	 viewBox="0 0 512 512" style="enable-background:new 0 0 512 512;" xml:space="preserve">
<g>
	<g>
		<path d="M301.219,422h-120c-8.284,0-15,6.716-15,15s6.715,15,15,15h120c8.284,0,15-6.716,15-15S309.503,422,301.219,422z"/>
	</g>
</g>
<g>
	<g>
		<path d="M451.219,60c-5.856,0-11.449,1.136-16.586,3.181C429.428,44.085,411.942,30,391.219,30
			c-5.856,0-11.449,1.136-16.586,3.181C369.428,14.085,351.942,0,331.219,0c-20.723,0-38.209,14.085-43.414,33.181
			C282.668,31.136,277.075,30,271.219,30s-11.449,1.136-16.586,3.181C249.427,14.085,231.942,0,211.218,0
			c-20.718,0-38.211,14.075-43.421,33.164C162.664,31.123,157.07,30,151.218,30c-24.813,0-45,20.187-45,45v131.36
			c-7.636-7.636-12.946-12.946-13.574-13.574c-0.011-0.011-0.021-0.021-0.032-0.032c-0.001-0.002,0.002-0.003-0.003-0.003
			c-17.545-17.543-46.092-17.542-63.637,0.003c-17.587,17.586-17.589,46.05,0,63.639l77.246,77.247V497c0,8.284,6.716,15,15,15h240
			h120c8.284,0,15-6.716,15-15V105C496.219,80.187,476.032,60,451.219,60z M346.217,482h-210V327.427
			c0-3.978-1.58-7.793-4.394-10.606L50.184,235.18c-5.863-5.863-5.863-15.349,0-21.213c5.851-5.849,15.365-5.848,21.214,0
			l0.008-0.008c0.001,0,0.002,0.001,0.002,0.001l-0.008,0.009c0.075,0.076,0.152,0.151,0.229,0.225
			c0.088,0.092,0.178,0.183,0.269,0.274c6.988,6.988,62.539,62.538,69.405,69.404c9.108,9.109,20.445,15.389,32.784,18.163
			l0.732,0.166c24.237,5.501,44.227,23.719,52.167,47.543c2.621,7.859,11.117,12.107,18.974,9.487
			c7.859-2.62,12.106-11.115,9.487-18.974c-11.236-33.711-39.587-59.504-73.985-67.312l-0.796-0.18
			c-6.788-1.526-13.064-5.021-18.15-10.106c-7.082-7.081-16.585-16.584-26.299-26.298V75c0-8.271,6.729-15,15-15s15,6.729,15,15v120
			c0,8.284,6.716,15,15,15s15-6.716,15-15V45c0-8.271,6.729-15,15-15s15,6.729,15,15c0,6.983,0,144.037,0,150
			c0,8.284,6.716,15,15,15s15-6.716,15-15V75c0-8.271,6.729-15,15-15s15,6.729,15,15c0,1.568,0,118.403,0,120
			c0,8.284,6.716,15,15,15s15-6.716,15-15v-90c0-8.271,6.729-15,15-15s15,6.729,15,15C346.217,112.432,346.217,479.957,346.217,482z
			 M346.219,62.58c-4.695-1.665-9.741-2.58-15-2.58c-5.259,0-10.305,0.915-15,2.58V45c0-8.271,6.728-15,15-15
			c8.271,0,15,6.729,15,15V62.58z M466.219,482h-90v-30h45c8.284,0,15-6.716,15-15s-6.716-15-15-15h-45c0-6.428,0-340.066,0-347
			c0-8.271,6.729-15,15-15s15,6.729,15,15c0,1.568,0,118.403,0,120c0,8.284,6.716,15,15,15s15-6.716,15-15v-90
			c0-8.271,6.729-15,15-15s15,6.729,15,15V482z"/>
	</g>
</g>
<g>
</g>
<g>
</g>
<g>
</g>
<g>
</g>
<g>
</g>
<g>
</g>
<g>
</g>
<g>
</g>
<g>
</g>
<g>
</g>
<g>
</g>
<g>
</g>
<g>
</g>
<g>
</g>
<g>
</g>
</svg>
