<?xml version="1.0" encoding="iso-8859-1"?>
<!-- Generator: Adobe Illustrator 19.0.0, SVG Export Plug-In . SVG Version: 6.00 Build 0)  -->
<svg version="1.1" id="Capa_1" xmlns="http://www.w3.org/2000/svg" xmlns:xlink="http://www.w3.org/1999/xlink" x="0px" y="0px"
	 viewBox="0 0 512 512" style="enable-background:new 0 0 512 512;" xml:space="preserve">
<g>
	<g>
		<path d="M498.72,185.688c-43.047-4.968-83.269-3.145-122.683,5.575c28.091-14.652,60.184-28.118,94.601-36.722
			c6.986-1.747,11.746-8.211,11.338-15.401c-0.407-7.189-5.866-13.075-13.005-14.021c-42.219-5.594-82.712-3.794-123.286,5.74
			c27.413-16.187,59.462-30.204,93.592-35.444c7.307-1.122,12.707-7.4,12.724-14.793c0.017-7.393-5.355-13.695-12.658-14.849
			c-39.327-6.217-80.101-4.855-119.39,3.644c16.213-11.8,34.452-22.107,62.756-36.259c5.67-2.835,8.945-8.927,8.184-15.22
			c-0.763-6.293-5.398-11.427-11.581-12.826C337.785-4.286,300.578-0.841,256,16.687C211.423-0.842,174.217-4.286,132.689,5.111
			c-6.183,1.399-10.818,6.533-11.581,12.826c-0.762,6.293,2.514,12.385,8.184,15.22c28.304,14.152,46.543,24.459,62.756,36.26
			c-39.288-8.499-80.062-9.862-119.39-3.645C65.355,66.927,59.983,73.23,60,80.623c0.017,7.393,5.417,13.671,12.724,14.793
			c34.129,5.24,66.178,19.256,93.591,35.444c-40.573-9.535-81.066-11.335-123.285-5.74c-7.139,0.946-12.598,6.832-13.005,14.021
			c-0.408,7.19,4.352,13.655,11.338,15.401c34.417,8.604,66.509,22.07,94.601,36.722c-39.414-8.72-79.635-10.542-122.683-5.575
			C5.708,186.562-0.005,192.976,0,200.599c0.005,7.623,5.727,14.03,13.3,14.894c17.099,1.951,63.492,29.306,104.425,53.441
			c21.774,12.839,43.065,25.388,62.693,36.055H106c-8.284,0-15,6.716-15,15v30c0,20.634,13.965,38.057,32.936,43.344l27.534,107.381
			c1.701,6.635,7.681,11.274,14.53,11.274h180c6.85,0,12.829-4.64,14.53-11.274l27.534-107.381
			c18.971-5.287,32.936-22.71,32.936-43.344v-30c0-8.284-6.716-15-15-15h-74.418c19.628-10.667,40.919-23.217,62.693-36.055
			c40.933-24.135,87.326-51.49,104.425-53.441c7.573-0.864,13.295-7.271,13.3-14.894
			C512.005,192.976,506.292,186.562,498.72,185.688z M271,43.052c19.247-7.255,36.596-11.42,53.636-12.659
			C303.994,42.812,288.894,54.612,271,71.26V43.052z M271,116.464c24.946-10.803,51.416-18.132,78.318-21.804
			c-31.63,16.288-58.584,36.178-78.318,52.734V116.464z M271,190.287c37.937-18.969,74.539-30.752,111.422-35.657
			c-29.498,13.796-54.892,29.048-74.24,41.943c-14.795,9.86-27.314,19.131-37.182,26.862V190.287z M187.364,30.393
			c17.038,1.24,34.39,5.405,53.636,12.659V71.26C223.106,54.612,208.006,42.812,187.364,30.393z M162.683,94.66
			c26.899,3.674,53.372,11.003,78.317,21.804v30.931C221.265,130.839,194.309,110.948,162.683,94.66z M129.58,154.631
			c36.878,4.905,73.485,16.69,111.42,35.656v33.148c-9.868-7.731-22.387-17.002-37.182-26.862
			C184.469,183.678,159.078,168.427,129.58,154.631z M132.962,243.091c-18.042-10.638-35.192-20.75-50.845-29.45
			c52.035,3.517,101.697,19.711,158.883,50.836v36.25C213.439,290.541,169.577,264.68,132.962,243.091z M334.361,481.989H177.639
			l-22.307-87h201.337L334.361,481.989z M391,334.989v15c0,8.271-6.729,15-15,15H136c-8.271,0-15-6.729-15-15v-15
			C130.906,334.989,381.31,334.989,391,334.989z M379.038,243.091c-36.615,21.589-80.477,47.45-108.038,57.636v-36.25
			c57.19-31.128,106.843-47.322,158.883-50.836C414.23,222.34,397.08,232.453,379.038,243.091z"/>
	</g>
</g>
<g>
</g>
<g>
</g>
<g>
</g>
<g>
</g>
<g>
</g>
<g>
</g>
<g>
</g>
<g>
</g>
<g>
</g>
<g>
</g>
<g>
</g>
<g>
</g>
<g>
</g>
<g>
</g>
<g>
</g>
</svg>
