<?xml version="1.0" encoding="iso-8859-1"?>
<!-- Generator: Adobe Illustrator 19.0.0, SVG Export Plug-In . SVG Version: 6.00 Build 0)  -->
<svg version="1.1" id="Capa_1" xmlns="http://www.w3.org/2000/svg" xmlns:xlink="http://www.w3.org/1999/xlink" x="0px" y="0px"
	 viewBox="0 0 512 512" style="enable-background:new 0 0 512 512;" xml:space="preserve">
<g>
	<g>
		<circle cx="136" cy="105" r="15"/>
	</g>
</g>
<g>
	<g>
		<path d="M475.86,102.553c-6.589-20.279-29.868-31.028-56.232-27.603C414.74,48.818,397.321,30,376,30
			c-21.321,0-38.74,18.818-43.628,44.95c-26.361-3.423-49.644,7.325-56.232,27.602c-4.018,12.363-0.929,26.28,8.475,38.183
			c5.351,6.772,12.497,12.642,20.803,17.184c-10.474,22.038-8.78,45.29,4.895,58.661c-6.176,20.522-9.312,41.752-9.312,63.273V300
			h-37.28c4.632-8.34,7.28-17.927,7.28-28.125V255c0-8.284-6.716-15-15-15h-15c-10.933,0-21.182,2.953-30.019,8.083
			c-0.167-20.915-3.287-41.543-9.293-61.502c13.675-13.37,15.369-36.622,4.895-58.661c8.304-4.541,15.452-10.412,20.803-17.185
			c9.403-11.902,12.492-25.82,8.475-38.182c-6.589-20.279-29.869-31.028-56.232-27.603C174.74,18.818,157.321,0,136,0
			S97.26,18.818,92.372,44.95c-26.36-3.425-49.644,7.325-56.232,27.602c-4.018,12.363-0.929,26.28,8.475,38.183
			c5.351,6.772,12.497,12.642,20.803,17.184c-11.416,24.02-8.388,49.491,8.866,62.029c6.463,4.695,14.033,6.931,21.993,6.931
			c13.283-0.001,27.646-6.23,39.724-17.654c11.39,10.773,24.805,16.921,37.438,17.587c4.852,16.654,7.38,33.836,7.542,51.249
			C172.153,242.945,161.917,240,151,240h-15c-8.284,0-15,6.716-15,15v16.875c0,10.198,2.648,19.785,7.28,28.125H121
			c-8.284,0-15,6.716-15,15v32c0,20.61,13.932,38.016,32.87,43.326l27.578,110.313C168.117,507.315,174.117,512,181,512h180
			c6.883,0,12.883-4.685,14.552-11.362l27.578-110.313C422.068,385.016,436,367.61,436,347v-32c0-8.284-6.716-15-15-15h-37.28
			c4.632-8.34,7.28-17.927,7.28-28.125V255c0-8.284-6.716-15-15-15h-15c-9.726,0-18.91,2.341-27.043,6.466
			c1.183-6.62,2.717-13.177,4.604-19.654c12.631-0.668,26.05-6.815,37.439-17.587c12.079,11.425,26.438,17.655,39.724,17.653
			c7.958-0.001,15.532-2.237,21.995-6.931c17.252-12.536,20.279-38.007,8.864-62.027c8.304-4.541,15.452-10.412,20.803-17.185
			C476.789,128.833,479.878,114.915,475.86,102.553z M241,270v1.875C241,287.383,228.383,300,212.874,300H211
			C211,283.458,224.458,270,241,270z M180.085,165.676c-4.908,3.564-18.753-0.565-29.477-15.053
			c-0.036-0.076-0.07-0.152-0.106-0.228c-0.375-0.797-0.941-2-1.777-3.339c-2.739-4.39-7.549-7.058-12.725-7.058
			s-9.985,2.668-12.725,7.058c-0.887,1.42-1.409,2.568-1.884,3.568c-10.726,14.491-24.573,18.616-29.476,15.055
			c-4.896-3.558-5.257-17.967,5.157-32.615c0.854-0.772,1.858-1.794,2.67-2.771c3.292-3.959,4.322-9.33,2.731-14.226
			c-1.592-4.897-5.583-8.635-10.574-9.902c-11.543-2.932-19.3-8.4-23.746-14.027c-3.032-3.838-4.335-7.694-3.483-10.314
			c1.89-5.817,15.752-10.654,33.171-4.995c1.372,0.445,9.22,5.229,17.252-0.61C122.758,70.648,121,62.497,121,60
			c0-18.313,8.884-30,15-30c8.437,0,16.107,18.15,14.904,31.271c-0.556,6.167,0.971,11.291,6.002,14.948
			c7.975,5.797,15.615,1.139,17.255,0.609c17.418-5.659,31.277-0.821,33.168,4.996c1.943,5.978-7.268,19.27-27.229,24.34
			c-4.992,1.267-8.985,5.006-10.577,9.905c-1.819,5.602-0.577,11.433,5.4,16.992C185.341,147.716,184.978,162.121,180.085,165.676z
			 M151,270c16.542,0,30,13.458,30,30h-1.876C163.616,300,151,287.383,151,271.875V270z M349.288,482H192.712l-22.5-90h201.577
			L349.288,482z M406,330v17c0,8.271-6.729,15-15,15H151c-8.271,0-15-6.729-15-15v-17C137.146,330,398.596,330,406,330z M361,270
			v1.875C361,287.383,348.383,300,332.874,300H331C331,283.458,344.458,270,361,270z M443.846,122.137
			c-4.451,5.634-11.892,10.453-20.407,13.22c-1.646,0.533-10.827,1.208-13.915,10.712c-2.151,6.624,0.363,12.307,5.4,16.992
			c10.418,14.655,10.055,29.06,5.162,32.615c-4.908,3.564-18.754-0.565-29.478-15.053c-0.036-0.076-0.07-0.152-0.106-0.228
			c-0.375-0.797-0.941-2-1.777-3.339c-2.739-4.39-7.549-7.058-12.725-7.058c-5.176,0-9.985,2.668-12.725,7.058
			c-0.887,1.42-1.409,2.568-1.884,3.568c-10.725,14.491-24.574,18.616-29.476,15.055c-4.896-3.558-5.257-17.967,5.157-32.615
			c0.025-0.023,0.05-0.046,0.074-0.069c5.889-5.52,7.151-11.314,5.327-16.927c-3.061-9.416-11.93-10.067-13.908-10.708
			c-8.521-2.769-15.961-7.588-20.412-13.222c-3.032-3.838-4.335-7.694-3.483-10.314c2.604-8.015,22.199-9.712,34.341-4.515
			c5.681,2.434,11.041,2.575,16.082-1.09C362.758,100.648,361,92.497,361,90c0-18.313,8.884-30,15-30
			c8.437,0,16.107,18.15,14.904,31.271c-0.556,6.167,0.971,11.291,6.002,14.948c7.717,5.608,15.042,1.324,17.255,0.609
			c17.418-5.659,31.277-0.821,33.168,4.996C448.181,114.444,446.878,118.299,443.846,122.137z"/>
	</g>
</g>
<g>
	<g>
		<circle cx="376" cy="135" r="15"/>
	</g>
</g>
<g>
</g>
<g>
</g>
<g>
</g>
<g>
</g>
<g>
</g>
<g>
</g>
<g>
</g>
<g>
</g>
<g>
</g>
<g>
</g>
<g>
</g>
<g>
</g>
<g>
</g>
<g>
</g>
<g>
</g>
</svg>
