<?xml version="1.0" encoding="iso-8859-1"?>
<!-- Generator: Adobe Illustrator 19.0.0, SVG Export Plug-In . SVG Version: 6.00 Build 0)  -->
<svg version="1.1" id="Capa_1" xmlns="http://www.w3.org/2000/svg" xmlns:xlink="http://www.w3.org/1999/xlink" x="0px" y="0px"
	 viewBox="0 0 512 512" style="enable-background:new 0 0 512 512;" xml:space="preserve">
<g>
	<g>
		<path d="M432.621,119.255c-0.782-4.656-3.711-8.673-7.905-10.841c-4.196-2.168-9.165-2.234-13.416-0.179
			c-1.06,0.512-18.912,9.26-38.066,25.177c-5.155-45.293-15.688-76.179-16.439-78.34c-1.786-5.134-6.21-8.901-11.563-9.844
			c-5.353-0.944-10.798,1.082-14.232,5.296c-0.742,0.911-13.467,16.658-28.815,43.174C288.788,43.434,270.31,9.859,269.097,7.687
			C266.447,2.941,261.436,0,256,0c-5.436,0-10.446,2.941-13.097,7.687c-1.213,2.172-19.691,35.747-33.087,86.011
			c-15.348-26.516-28.073-42.263-28.815-43.174c-3.434-4.213-8.873-6.24-14.232-5.296c-5.354,0.944-9.777,4.71-11.563,9.844
			c-0.751,2.162-11.284,33.047-16.439,78.34c-19.154-15.918-37.007-24.665-38.067-25.178c-0.008-0.004-0.017-0.008-0.024-0.012
			c-2.658-1.279-5.509-1.705-8.234-1.383c-1.777,0.206-3.526,0.732-5.157,1.574c-4.194,2.168-7.123,6.184-7.905,10.841
			c-0.554,3.288-13.128,80.904,11.62,167.84V317c0,20.417,13.672,37.69,32.337,43.174l27.954,139.768
			C152.694,506.953,158.85,512,166,512h180c7.15,0,13.307-5.047,14.709-12.058l27.954-139.768C407.329,354.69,421,337.417,421,317
			v-29.906C445.748,200.158,433.174,122.542,432.621,119.255z M311.805,139.878c8.488-17.951,17.275-33.174,24.639-44.818
			c7.113,32.684,14.917,88.173,4.471,147.415c-1.601,9.079-3.651,18.299-6.107,27.525h-26.531c5.126-25.495,7.723-50.648,7.723-75
			C316,175.774,314.405,157.272,311.805,139.878z M256.019,50.65C268.698,81.609,286,134.873,286,195c0,24.24-2.814,49.418-8.369,75
			h-43.263c-5.555-25.582-8.369-50.76-8.369-75C226,135.038,243.336,81.669,256.019,50.65z M175.588,95.079
			c7.341,11.615,16.104,26.811,24.607,44.799C197.595,157.272,196,175.774,196,195c0,24.352,2.597,49.505,7.723,75h-26.531
			c-2.456-9.226-4.506-18.446-6.107-27.525C160.67,183.407,168.483,127.825,175.588,95.079z M106.667,146.722
			c9.11,6.276,20.041,14.977,29.412,25.712c-0.544,23.374,0.814,48.889,5.462,75.251c1.302,7.38,2.878,14.84,4.698,22.316h-28.781
			C104.648,219.799,104.918,173.15,106.667,146.722z M333.703,482H178.297l-24-120h203.405L333.703,482z M391,317
			c0,8.271-6.729,15-15,15h-0.017c-0.04,0-0.08,0-0.12,0H136.135c-0.038,0-0.077,0-0.115,0H136c-8.271,0-15-6.729-15-15v-17
			c36.306,0,201.611,0,270,0V317z M394.545,270h-28.783c1.82-7.476,3.396-14.935,4.698-22.316
			c4.648-26.362,6.007-51.877,5.462-75.251c9.38-10.745,20.323-19.452,29.436-25.729C407.125,173.08,407.405,219.648,394.545,270z"
			/>
	</g>
</g>
<g>
</g>
<g>
</g>
<g>
</g>
<g>
</g>
<g>
</g>
<g>
</g>
<g>
</g>
<g>
</g>
<g>
</g>
<g>
</g>
<g>
</g>
<g>
</g>
<g>
</g>
<g>
</g>
<g>
</g>
</svg>
