<?xml version="1.0" encoding="iso-8859-1"?>
<!-- Generator: Adobe Illustrator 19.0.0, SVG Export Plug-In . SVG Version: 6.00 Build 0)  -->
<svg version="1.1" id="Capa_1" xmlns="http://www.w3.org/2000/svg" xmlns:xlink="http://www.w3.org/1999/xlink" x="0px" y="0px"
	 viewBox="0 0 511.999 511.999" style="enable-background:new 0 0 511.999 511.999;" xml:space="preserve">
<g>
	<g>
		<path d="M463.413,17.587c-23.447-23.448-61.399-23.45-84.85,0c-11.489,11.487-26.624,36.103-34.482,60.003
			c-16.647-11.1-36.624-17.578-58.089-17.578c-31.261,0-59.369,13.738-78.621,35.487c-4.718-7.257-9.554-13.519-13.951-17.914
			c-11.697-11.697-27.061-17.546-42.426-17.546c0-0.009,0.001-0.019,0.001-0.028c0-33.083-26.915-59.998-59.998-59.998
			c-33.083,0-59.998,26.915-59.998,59.998c0,33.083,26.915,59.998,59.998,59.998c0.01,0,0.019-0.001,0.028-0.001
			c0,15.365,5.848,30.729,17.546,42.426c13.993,13.993,48.396,33.743,76.368,38.606c4.101,21.848,11.133,46.487,19.805,68.965
			h-68.748c-8.284,0-15,6.716-15,15v31.999c0,20.416,13.672,37.689,32.337,43.173l27.953,139.764
			c1.402,7.011,7.558,12.058,14.708,12.058h179.995c7.15,0,13.307-5.047,14.709-12.058l27.953-139.764
			c18.664-5.483,32.336-22.756,32.336-43.172v-31.999c0-8.284-6.716-15-15-15h-68.748c14.015-36.325,23.749-78.309,23.749-104.997
			c0-8.289-0.969-16.354-2.794-24.093c29.643-5.349,63.444-26.706,75.217-38.478C486.861,78.988,486.864,41.037,463.413,17.587z
			 M119.658,68.857c-8.119,4.974-14.838,11.689-19.815,19.816c-2.844,0.882-5.803,1.338-8.846,1.338
			c-16.542,0-29.999-13.458-29.999-29.999c0-16.542,13.458-29.999,29.999-29.999c16.542,0,29.999,13.458,29.999,29.999
			C120.996,63.054,120.54,66.013,119.658,68.857z M180.994,165.009c0,1.415,0.037,2.886,0.091,4.384
			c-19.008-5.72-42.206-19.072-51.303-28.17c-11.697-11.697-11.697-30.728,0-42.426c11.697-11.696,30.728-11.696,42.426,0
			c4.259,4.259,10.874,13.388,17.145,25.167C183.974,136.579,180.994,150.452,180.994,165.009z M285.992,90.011
			c41.354,0,74.998,33.644,74.998,74.998c0,22.694-9.686,66.76-26.112,104.997h-97.771c-16.705-38.887-26.112-82.811-26.112-104.997
			C210.994,123.655,244.638,90.011,285.992,90.011z M363.692,482H208.291l-23.999-119.997h203.4L363.692,482z M420.988,300.005v17
			c0,8.271-6.729,15-15,15h-0.012c-0.044,0-0.088,0-0.132,0H166.137c-0.043,0-0.086,0-0.13,0h-0.012c-8.271,0-15-6.729-15-15v-17
			C185.386,300.005,389.413,300.005,420.988,300.005z M442.2,81.224c-13.4,13.4-47.825,30.187-65.502,30.954
			c-2.273-3.888-4.79-7.617-7.528-11.167c2.545-20.094,19.568-51.177,30.605-62.213c11.724-11.724,30.7-11.726,42.425,0
			C453.926,50.525,453.925,69.499,442.2,81.224z"/>
	</g>
</g>
<g>
	<g>
		<circle cx="285.992" cy="135.006" r="15"/>
	</g>
</g>
<g>
	<g>
		<circle cx="255.992" cy="195.004" r="15"/>
	</g>
</g>
<g>
	<g>
		<circle cx="315.991" cy="225.003" r="15"/>
	</g>
</g>
<g>
</g>
<g>
</g>
<g>
</g>
<g>
</g>
<g>
</g>
<g>
</g>
<g>
</g>
<g>
</g>
<g>
</g>
<g>
</g>
<g>
</g>
<g>
</g>
<g>
</g>
<g>
</g>
<g>
</g>
</svg>
