<?xml version="1.0" encoding="iso-8859-1"?>
<!-- Generator: Adobe Illustrator 19.0.0, SVG Export Plug-In . SVG Version: 6.00 Build 0)  -->
<svg version="1.1" id="Capa_1" xmlns="http://www.w3.org/2000/svg" xmlns:xlink="http://www.w3.org/1999/xlink" x="0px" y="0px"
	 viewBox="0 0 511.999 511.999" style="enable-background:new 0 0 511.999 511.999;" xml:space="preserve">
<g>
	<g>
		<path d="M467.427,206.551h-50.552l2.211-96.691c22.402-9.737,36.127-33.892,31.704-58.981l-6.782-38.464
			c-1.44-8.17-9.227-13.624-17.403-12.185L41.965,68.053c-3.924,0.692-7.412,2.914-9.697,6.177s-3.181,7.302-2.489,11.224
			l6.782,38.465c4.423,25.09,25.583,43.094,49.965,44.583l14.842,38.049H76.853c-8.296,0-15.022,6.726-15.022,15.022v41.06
			c0,25.475,17.712,46.879,41.464,52.578l36.942,184.712c1.404,7.021,7.569,12.076,14.73,12.076h234.345
			c7.161,0,13.327-5.054,14.731-12.076l36.942-184.713c23.752-5.699,41.464-27.103,41.464-52.578v-41.06
			C482.45,213.277,475.724,206.551,467.427,206.551z M94.129,138.175c-0.041,0.007-0.081,0.014-0.121,0.021l-0.015,0.002
			c-13.051,2.3-25.543-6.444-27.845-19.497l-4.173-23.67l355.053-62.605l4.173,23.67c2.302,13.052-6.445,25.543-19.496,27.845
			L94.129,138.175z M388.877,116.71l-2.054,89.84H133.619l-16.363-41.946L388.877,116.71z M376.997,481.956H167.283l-33.049-165.243
			h275.812L376.997,481.956z M452.406,262.633L452.406,262.633c-0.001,13.254-10.784,24.035-24.036,24.035h-0.016
			c-0.043,0-0.085,0-0.127,0H116.048c-0.039,0-0.078,0-0.117,0h-0.019c-13.253,0-24.035-10.782-24.035-24.035v-26.038
			c15.9,0,342.494,0,360.53,0V262.633z"/>
	</g>
</g>
<g>
</g>
<g>
</g>
<g>
</g>
<g>
</g>
<g>
</g>
<g>
</g>
<g>
</g>
<g>
</g>
<g>
</g>
<g>
</g>
<g>
</g>
<g>
</g>
<g>
</g>
<g>
</g>
<g>
</g>
</svg>
