<?xml version="1.0" encoding="iso-8859-1"?>
<!-- Generator: Adobe Illustrator 19.0.0, SVG Export Plug-In . SVG Version: 6.00 Build 0)  -->
<svg version="1.1" id="Capa_1" xmlns="http://www.w3.org/2000/svg" xmlns:xlink="http://www.w3.org/1999/xlink" x="0px" y="0px"
	 viewBox="0 0 512 512" style="enable-background:new 0 0 512 512;" xml:space="preserve">
<g>
	<g>
		<path d="M392,393.076V347c0-15.339,5.974-29.76,16.819-40.606l4.595-4.595C468.336,298.472,512,252.742,512,197
			c0-8.284-6.716-15-15-15c-55.743,0-101.471,43.665-104.798,98.585c-5.43,5.43-9.869,9.577-15.202,17.425
			c-5.336-7.853-9.828-12.052-15.202-17.426C358.471,225.664,312.743,182,257,182c-8.284,0-15,6.716-15,15
			c0,55.743,43.664,101.472,98.585,104.798l4.595,4.595C356.026,317.24,362,331.661,362,347v46.076
			c-50.817,7.301-90,51.119-90,103.924c0,8.284,6.716,15,15,15h180c8.284,0,15-6.716,15-15C482,444.195,442.817,400.377,392,393.076
			z M480.074,213.926c-6.435,27.791-28.357,49.714-56.148,56.148C430.36,242.283,452.283,220.36,480.074,213.926z M273.926,213.926
			c27.791,6.434,49.714,28.357,56.148,56.148C302.283,263.64,280.36,241.717,273.926,213.926z M303.507,482
			c6.97-34.191,37.274-60,73.493-60c36.219,0,66.523,25.809,73.493,60H303.507z"/>
	</g>
</g>
<g>
	<g>
		<path d="M180,333.979V75c0-41.355-33.645-75-75-75S30,33.645,30,75v258.979C10.856,353.599,0,379.845,0,407
			c0,57.897,47.103,105,105,105c57.897,0,105-47.103,105-105C210,379.845,199.144,353.599,180,333.979z M105,482
			c-41.355,0-75-33.645-75-75c0-21.242,8.893-40.952,25.04-55.499c3.157-2.844,4.96-6.895,4.96-11.145V300h15
			c8.284,0,15-6.716,15-15s-6.716-15-15-15H60v-30h15c8.284,0,15-6.716,15-15s-6.716-15-15-15H60v-30h15c8.284,0,15-6.716,15-15
			s-6.716-15-15-15H60v-30h15c8.284,0,15-6.716,15-15s-6.716-15-15-15H60V75c0-24.813,20.187-45,45-45s45,20.187,45,45v265.357
			c0,4.25,1.803,8.3,4.96,11.145C171.107,366.048,180,385.758,180,407C180,448.355,146.355,482,105,482z"/>
	</g>
</g>
<g>
	<g>
		<path d="M120,364.58V75c0-8.284-6.716-15-15-15s-15,6.716-15,15v30v60v60v60v79.58c-17.459,6.192-30,22.865-30,42.42
			c0,24.813,20.187,45,45,45s45-20.187,45-45C150,387.445,137.459,370.772,120,364.58z M105,422c-8.271,0-15-6.729-15-15
			s6.729-15,15-15s15,6.729,15,15S113.271,422,105,422z"/>
	</g>
</g>
<g>
</g>
<g>
</g>
<g>
</g>
<g>
</g>
<g>
</g>
<g>
</g>
<g>
</g>
<g>
</g>
<g>
</g>
<g>
</g>
<g>
</g>
<g>
</g>
<g>
</g>
<g>
</g>
<g>
</g>
</svg>
