<?xml version="1.0" encoding="iso-8859-1"?>
<!-- Generator: Adobe Illustrator 19.0.0, SVG Export Plug-In . SVG Version: 6.00 Build 0)  -->
<svg version="1.1" id="Capa_1" xmlns="http://www.w3.org/2000/svg" xmlns:xlink="http://www.w3.org/1999/xlink" x="0px" y="0px"
	 viewBox="0 0 512.001 512.001" style="enable-background:new 0 0 512.001 512.001;" xml:space="preserve">
<g>
	<g>
		<path d="M507.605,30.814c-5.86-5.861-15.362-5.861-21.222,0c-3.963,3.963-7.853,7.841-11.696,11.667
			c-8.138-5.379-17.464-8.994-26.715-10.869V15.053c0-8.288-6.719-15.007-15.007-15.007c-8.288,0-15.007,6.719-15.007,15.007v16.559
			c-9.258,1.876-17.868,5.495-26.011,10.881l-11.679-11.679c-5.859-5.86-15.361-5.861-21.222,0c-5.861,5.861-5.861,15.362,0,21.222
			l11.679,11.679c-5.385,8.143-9.005,17.794-10.881,27.051h-16.559c-8.288,0-15.007,6.719-15.007,15.007s6.719,15.007,15.007,15.007
			h16.559c2.023,9.983,6.094,18.944,12.197,27.581c-18.355,21.983-31.844,41.778-41.718,60.946
			c-7.703,14.956-13.176,29.315-17.498,44.166c-16.028-34.616-41.704-65.966-81.56-107.217c5.308-8.086,8.883-16.299,10.742-25.477
			h16.559c8.288,0,15.007-6.719,15.007-15.007s-6.719-15.007-15.007-15.007h-16.558c-1.876-9.258-5.495-18.909-10.881-27.051
			l11.679-11.679c5.861-5.861,5.861-15.362,0-21.223c-5.86-5.861-15.362-5.861-21.222,0l-11.679,11.679
			c-8.143-5.385-17.794-9.005-27.051-10.881V15.053c0-8.288-6.719-15.007-15.007-15.007c-8.288,0-15.007,6.719-15.007,15.007v16.558
			c-9.251,1.875-17.536,5.49-25.673,10.87c-3.843-3.826-7.733-7.704-11.696-11.667c-5.86-5.861-15.362-5.861-21.222,0
			c-5.861,5.861-5.861,15.362,0,21.222c21.122,21.122,39.22,38.964,61.885,61.344c32.253,44.073,71.85,91.831,82.194,166.609
			c-3.443-4.631-7.175-8.832-11.137-12.465c-10.018-9.322-21.736-16.112-36.85-21.356c-0.001,0-0.001-0.001-0.002-0.001
			l-16.451-5.953c1.383-9.551,0.862-19.102-1.327-28.186l15.008-6.998c7.511-3.503,10.761-12.432,7.258-19.943
			s-12.432-10.762-19.943-7.258l-15.008,6.998c-5.612-7.597-12.685-14.198-21.006-19.302l5.649-15.52
			c2.834-7.788-1.181-16.399-8.969-19.235c-7.788-2.834-16.399,1.18-19.235,8.969l-5.645,15.509
			c-9.515-1.437-19.172-1.014-28.526,1.246l-6.975-14.958c-3.503-7.511-12.434-10.762-19.943-7.259
			c-7.511,3.503-10.762,12.432-7.259,19.943l6.975,14.959c-7.735,5.707-14.259,12.824-19.273,21.024l-15.553-5.628
			c-7.794-2.82-16.398,1.213-19.217,9.005c-2.82,7.794,1.212,16.397,9.005,19.217c10.675,3.863,80.862,29.258,88.791,32.127
			c29.07,11.629,48.776,31.076,59.981,54.934h-38.811c-8.288,0-15.007,6.719-15.007,15.007v32.014
			c0,20.619,13.938,38.033,32.885,43.344l27.59,110.362c1.67,6.68,7.672,11.367,14.559,11.367h180.08
			c6.886,0,12.889-4.687,14.559-11.367l27.59-110.362c18.946-5.312,32.685-22.725,32.685-43.345v-32.014
			c0-8.288-6.519-15.007-14.807-15.007h-29.691c2.572-81.314,19.021-136.223,55.426-186.492
			c19.105-18.865,39.959-39.421,61.871-61.331C513.466,46.175,513.466,36.673,507.605,30.814z M209.388,123.995
			c-17.933-18.005-36.997-36.708-60.125-59.589c16.707-7.891,37.301-4.944,51.098,8.852
			C214.057,86.955,217.065,107.353,209.388,123.995z M64.907,200.784c4.205-5.093,9.524-9.228,15.687-12.102
			c10.899-5.083,23.125-5.616,34.424-1.504c11.3,4.113,20.322,12.381,25.404,23.279c2.849,6.11,4.267,12.638,4.24,19.185
			L64.907,200.784z M374.367,194.316c-8.192,30.504-12.827,65.234-14.084,105.544h-27.371
			C340.352,260.444,348.866,230.939,374.367,194.316z M297.444,299.86h-27.055c-1.858-32.321-8.549-60.41-17.958-85.29
			C276.222,244.029,289.747,269.136,297.444,299.86z M180.126,274.391c0.041,0.015,0.083,0.024,0.124,0.039
			c0.029,0.01,0.055,0.025,0.084,0.035c11.293,3.899,19.448,8.545,26.444,15.064c0.033,0.03,0.065,0.06,0.098,0.09
			c3.098,2.836,6.063,6.312,8.779,10.242h-24.598c-3.176-9.114-7.335-17.821-12.357-25.986L180.126,274.391z M348.256,481.941
			H191.61l-22.51-90.04h201.667L348.256,481.941z M404.993,329.873v17.008c0,8.275-6.732,15.007-15.007,15.007H149.879
			c-8.275,0-15.207-6.732-15.207-15.007v-17.008C172.81,329.873,383.097,329.873,404.993,329.873z M392.838,124.758
			c-8.13-16.776-5.254-37.589,8.65-51.496c0.001-0.001,0.002-0.002,0.003-0.003c0.001-0.001,0.002-0.002,0.003-0.003
			c13.796-13.793,34.389-16.739,51.096-8.849C424.123,92.571,410.662,105.454,392.838,124.758z"/>
	</g>
</g>
<g>
</g>
<g>
</g>
<g>
</g>
<g>
</g>
<g>
</g>
<g>
</g>
<g>
</g>
<g>
</g>
<g>
</g>
<g>
</g>
<g>
</g>
<g>
</g>
<g>
</g>
<g>
</g>
<g>
</g>
</svg>
