<?xml version="1.0" encoding="iso-8859-1"?>
<!-- Generator: Adobe Illustrator 19.0.0, SVG Export Plug-In . SVG Version: 6.00 Build 0)  -->
<svg version="1.1" id="Capa_1" xmlns="http://www.w3.org/2000/svg" xmlns:xlink="http://www.w3.org/1999/xlink" x="0px" y="0px"
	 viewBox="0 0 511.999 511.999" style="enable-background:new 0 0 511.999 511.999;" xml:space="preserve">
<g>
	<g>
		<path d="M493.826,82.123c-1.361-3.738-4.15-6.783-7.757-8.464c-22.365-10.429-46.566-12.268-68.872-6.889
			c5.263-6.993,4.543-5.999,33.662-42.397c5.175-6.469,4.127-15.909-2.343-21.083c-6.469-5.176-15.909-4.126-21.083,2.342
			c-28.209,35.261-35.019,43.236-47.425,61.635c-0.815-2.937-1.763-5.849-2.858-8.726c-9.509-24.975-28.764-45.265-54.216-57.133
			c-3.605-1.681-7.731-1.862-11.47-0.5c-3.738,1.36-6.782,4.15-8.464,7.756c-11.839,25.389-13.057,53.298-3.428,78.583
			c7.893,20.729,22.504,38.226,41.795,50.363c-5.664,12.964-10.729,26.182-15.134,39.621
			c-14.042-24.055-36.569-41.264-63.492-48.478H249.26c-26.924,7.214-49.45,24.422-63.492,48.477
			c-4.405-13.438-9.469-26.656-15.133-39.62c19.291-12.138,33.902-29.634,41.795-50.363c9.628-25.287,8.411-53.195-3.428-78.583
			c-3.502-7.508-12.427-10.757-19.934-7.255c-25.452,11.869-44.706,32.159-54.215,57.133c-1.095,2.876-2.043,5.788-2.858,8.725
			c-12.41-18.404-19.233-26.394-47.425-61.633c-5.174-6.469-14.613-7.518-21.083-2.342c-6.469,5.175-7.518,14.614-2.342,21.083
			c29.143,36.429,28.391,35.395,33.662,42.398c-22.307-5.379-46.509-3.54-68.873,6.889c-7.508,3.501-10.756,12.426-7.255,19.934
			c11.853,25.418,32.895,44.7,59.25,54.292c21.172,7.707,43.853,8.471,65.393,2.121c5.312,12.191,10.051,24.625,14.17,37.264
			c-24.863-15.231-54.147-19.42-82.094-11.931c-8.002,2.144-12.75,10.369-10.606,18.371c12.556,46.858,55.087,77.835,101.445,77.835
			c3.07,0,6.158-0.147,9.255-0.423c1.034,9.584,1.716,19.217,2.072,28.878h-70.204c-8.284,0-15,6.716-15,15v32
			c0,20.61,13.932,38.016,32.87,43.325l27.578,110.312c1.669,6.677,7.669,11.362,14.552,11.362h179.999
			c6.883,0,12.883-4.685,14.552-11.362l27.578-110.312c18.938-5.31,32.87-22.716,32.87-43.326v-32c0-8.284-6.716-15-15-15h-72.914
			c0.356-9.661,1.038-19.293,2.072-28.877c50.039,4.463,97.357-27.617,110.701-77.412c1.029-3.843,0.49-7.937-1.499-11.382
			c-1.989-3.445-5.266-5.959-9.108-6.989c-28.958-7.76-58.388-2.568-82.118,12.006c4.125-12.669,8.874-25.132,14.198-37.351
			c49.03,14.372,102.492-8.913,124.637-56.402C495.006,89.987,495.186,85.861,493.826,82.123z M88.188,119.693
			c-13.412-4.881-24.898-13.276-33.456-24.266c13.621-2.918,27.816-1.965,41.227,2.916c13.412,4.882,24.898,13.277,33.456,24.267
			C115.797,125.527,101.601,124.575,88.188,119.693z M162.888,69.215c4.801-12.608,13.218-23.572,24.326-31.925
			c2.871,13.226,1.951,26.75-2.82,39.281c-4.801,12.608-13.218,23.572-24.326,31.925C157.197,95.27,158.117,81.745,162.888,69.215z
			 M99.998,201.777c13.93-0.496,27.72,2.899,40.073,10.032c12.354,7.133,22.205,17.388,28.725,29.689
			C140.278,242.491,113.405,226.971,99.998,201.777z M271.187,164.147c12.14,6.52,22.268,16.293,29.331,28.526
			c7.137,12.361,10.539,26.175,10.031,40.095c-12.31-6.52-22.571-16.374-29.708-28.734
			C269.458,184.317,271.293,168.828,271.187,164.147z M256.002,220.86c11.58,19.148,29.241,34.644,51.13,43.294
			c-1.386,11.887-2.291,23.845-2.703,35.846h-96.853c-0.412-12-1.317-23.958-2.703-35.846
			C226.761,255.503,244.422,240.008,256.002,220.86z M211.485,192.673c7.063-12.233,17.191-22.006,29.331-28.526
			c-0.102,4.5,1.766,20.105-9.655,39.886c-7.137,12.361-17.398,22.215-29.708,28.734
			C200.946,218.848,204.349,205.034,211.485,192.673z M335.644,481.998H179.069l-22.5-89.999h201.575L335.644,481.998z
			 M392.356,329.999v17c0,8.271-6.729,15-15,15H137.358c-8.271,0-15-6.729-15-15v-17H392.356z M327.609,76.571
			c-4.771-12.53-5.69-26.055-2.819-39.281c11.106,8.353,19.524,19.317,24.324,31.925c4.771,12.53,5.691,26.055,2.82,39.281
			C340.827,100.143,332.41,89.179,327.609,76.571z M411.995,201.796c-13.407,25.179-40.232,40.677-68.767,39.703
			C356.637,216.319,383.507,200.822,411.995,201.796z M382.621,122.597c17.576-22.467,46.708-33.071,74.616-27.158
			C439.661,117.907,410.532,128.511,382.621,122.597z"/>
	</g>
</g>
<g>
</g>
<g>
</g>
<g>
</g>
<g>
</g>
<g>
</g>
<g>
</g>
<g>
</g>
<g>
</g>
<g>
</g>
<g>
</g>
<g>
</g>
<g>
</g>
<g>
</g>
<g>
</g>
<g>
</g>
</svg>
