<?xml version="1.0" encoding="iso-8859-1"?>
<!-- Generator: Adobe Illustrator 19.0.0, SVG Export Plug-In . SVG Version: 6.00 Build 0)  -->
<svg version="1.1" id="Capa_1" xmlns="http://www.w3.org/2000/svg" xmlns:xlink="http://www.w3.org/1999/xlink" x="0px" y="0px"
	 viewBox="0 0 512 512" style="enable-background:new 0 0 512 512;" xml:space="preserve">
<g>
	<g>
		<path d="M435.491,270H467c24.813,0,45-20.187,45-45c0-22.402-16.453-41.033-37.911-44.442C463.586,161.941,443.747,150,422,150
			s-41.586,11.941-52.089,30.558C348.453,183.967,332,202.598,332,225c0,24.813,20.187,45,45,45h27.42
			c-6.192,17.458-22.865,30-42.42,30c-7.472,0-158.898,0-166,0c-8.271,0-15-6.729-15-15s6.729-15,15-15h8.438
			C257.682,270,301,226.682,301,173.438V150h45c24.813,0,45-20.187,45-45c0-22.402-16.453-41.033-37.911-44.442
			C342.586,41.941,322.747,30,301,30c-4.505,0-9.358,0.558-13.828,1.607C273.261,12.062,250.488,0,226,0
			c-36.991,0-67.813,26.922-73.907,62.199C134.064,68.07,121,85.038,121,105c0,24.813,20.187,45,45,45h45v23.438
			c0,3.619-2.944,6.563-6.563,6.563H196c-51.733,0-94.844,37.609-103.437,86.921C82.271,261.978,75,251.636,75,240v-30
			c24.813,0,45-20.187,45-45s-20.187-45-45-45H45c-24.813,0-45,20.187-45,45s20.187,45,45,45v30
			c0,16.053,6.476,31.177,18.235,42.585c8.089,7.848,17.945,13.222,28.608,15.753C98.417,349.961,142.621,390,196,390
			c-5.965,0-143.017,0-150,0c-8.284,0-15,6.716-15,15s6.716,15,15,15h19.114l26.625,81.65C93.752,507.823,99.507,512,106,512h300
			c6.492,0,12.248-4.177,14.261-10.35L446.886,420H466c8.284,0,15-6.716,15-15s-6.716-15-15-15c-14.807,0-59.742,0-76.076,0
			c-3.354-23.348-14.417-44.236-30.52-60H362C398.22,330,428.522,304.192,435.491,270z M376.999,240.001
			C368.729,240,362,233.271,362,225s6.729-15,15-15c4.007,0,7.773,1.56,10.606,4.393c5.857,5.858,15.356,5.858,21.213,0
			c5.858-5.858,5.858-15.355,0-21.213c-2.062-2.062-4.292-3.895-6.654-5.495C407.526,182.861,414.533,180,422,180
			c7.467,0,14.474,2.861,19.834,7.686c-2.362,1.6-4.592,3.433-6.654,5.495c-5.858,5.858-5.858,15.355,0,21.213
			c5.857,5.858,15.356,5.858,21.213,0c2.833-2.833,6.6-4.393,10.606-4.393c8.271,0,15,6.729,15,15s-6.729,15-15,15H376.999z M45,180
			c-8.271,0-15-6.729-15-15s6.729-15,15-15h30c8.271,0,15,6.729,15,15s-6.729,15-15,15H45z M166,120c-8.271,0-15-6.729-15-15
			c0-13.341,16.2-20.013,25.607-10.606c5.858,5.858,15.355,5.858,21.213-0.001c5.858-5.858,5.857-15.355-0.001-21.213
			c-4.416-4.415-9.591-7.789-15.227-10.022C187.806,44.073,205.286,30,226,30c13.369,0,25.882,5.997,34.319,15.911
			c-0.589,0.544-1.176,1.093-1.746,1.663c-5.858,5.858-5.857,15.355,0,21.213c5.859,5.858,15.356,5.857,21.213,0
			C285.439,63.135,293.029,60,301,60c7.467,0,14.474,2.861,19.834,7.686c-2.362,1.6-4.592,3.433-6.654,5.495
			c-5.858,5.858-5.858,15.355,0,21.213c5.857,5.858,15.356,5.858,21.213,0C338.227,91.56,341.993,90,346,90c8.271,0,15,6.729,15,15
			s-6.729,15-15,15H166z M415.331,420l-20.217,62H116.886l-20.218-62H415.331z M359.491,390H238.42
			c-6.192-17.458-22.865-30-42.42-30c-41.355,0-75-33.645-75-75c0-41.355,33.645-75,75-75h8.438
			c20.16,0,36.562-16.402,36.562-36.562V150h30v23.438C271,210.14,241.14,240,204.438,240H196c-24.813,0-45,20.187-45,45
			s20.187,45,45,45h90C322.22,330,352.522,355.808,359.491,390z"/>
	</g>
</g>
<g>
</g>
<g>
</g>
<g>
</g>
<g>
</g>
<g>
</g>
<g>
</g>
<g>
</g>
<g>
</g>
<g>
</g>
<g>
</g>
<g>
</g>
<g>
</g>
<g>
</g>
<g>
</g>
<g>
</g>
</svg>
