<?xml version="1.0" encoding="iso-8859-1"?>
<!-- Generator: Adobe Illustrator 19.0.0, SVG Export Plug-In . SVG Version: 6.00 Build 0)  -->
<svg version="1.1" id="Capa_1" xmlns="http://www.w3.org/2000/svg" xmlns:xlink="http://www.w3.org/1999/xlink" x="0px" y="0px"
	 viewBox="0 0 512 512" style="enable-background:new 0 0 512 512;" xml:space="preserve">
<g>
	<g>
		<path d="M447.175,214.994C445.895,213.565,415.386,180,376,180c-31.061,0-56.588,20.865-66.625,30.391
			c-13.866,1.587-27.37,7.835-38.375,14.557v-23.631c19.58-18.599,38.598-30.479,47.086-35.356
			c6.416,1.542,17.174,3.556,29.603,3.556c13.622,0,29.242-2.423,43.312-10.546c34.11-19.694,43.749-64.015,44.143-65.892
			c1.569-7.483-2.741-14.949-10.006-17.332c-1.824-0.598-45.028-14.412-79.137,5.282c-26.161,15.104-37.926,44.692-42.167,58.511
			c-6.657,3.776-18.739,11.153-32.833,22.193v-20.521c9.695-10.315,30-35.573,30-66.212c0-39.387-33.565-69.895-34.994-71.175
			c-5.696-5.1-14.316-5.1-20.013,0C244.565,5.105,211,35.612,211,75c0,30.638,20.305,55.897,30,66.212v20.495
			c-14.079-11.022-26.13-18.388-32.77-22.161c-4.24-13.817-16.005-43.411-42.169-58.517c-34.11-19.693-77.313-5.88-79.136-5.282
			C79.66,78.13,75.35,85.595,76.919,93.078c0.394,1.877,10.031,46.199,44.142,65.893c14.072,8.125,29.688,10.546,43.311,10.546
			c12.434,0,23.198-2.017,29.613-3.559c8.455,4.849,27.326,16.635,47.015,35.308v20.441c-9.986-5.744-22.782-10.461-38.558-11.49
			C192.275,200.61,166.867,180,136,180c-39.388,0-69.896,33.565-71.175,34.994c-5.1,5.696-5.1,14.316,0,20.012
			C66.104,236.435,96.612,270,136,270c30.369,0,55.444-19.943,65.927-29.736c21.569,1.918,34.189,13.949,39.073,19.722V300H106
			c-8.284,0-15,6.716-15,15v32c0,20.61,13.932,38.016,32.87,43.325l27.578,110.313C153.117,507.315,159.117,512,166,512h180
			c6.883,0,12.883-4.685,14.552-11.362l27.578-110.313C407.067,385.016,421,367.61,421,347v-32c0-8.284-6.716-15-15-15H271v-38.206
			c8.896-7.324,25.153-18.655,39.377-21.247C321.036,250.435,345.92,270,376,270c39.387,0,69.896-33.565,71.175-34.994
			C452.275,229.31,452.275,220.69,447.175,214.994z M361,107.009c12.748-7.36,28.649-7.261,40.036-5.795
			c-4.425,10.599-12.29,24.417-25.036,31.776c-12.748,7.36-28.649,7.261-40.036,5.795C340.388,128.187,348.254,114.369,361,107.009z
			 M136.061,132.99c-12.741-7.356-20.605-21.166-25.028-31.754c11.405-1.458,27.332-1.557,40.028,5.774
			c12.749,7.361,20.615,21.183,25.037,31.774C164.708,140.252,148.807,140.349,136.061,132.99z M136,240
			c-14.722,0-28.445-8.037-37.569-14.999C107.561,218.034,121.281,210,136,210c14.722,0,28.445,8.037,37.569,14.999
			C164.439,231.966,150.718,240,136,240z M334.288,482H177.711l-22.5-90h201.577L334.288,482z M391,330v17c0,8.271-6.729,15-15,15
			H136c-8.271,0-15-6.729-15-15v-17H391z M256.001,112.57C249.034,103.439,241,89.718,241,75c0-14.722,8.037-28.445,14.999-37.57
			C262.966,46.561,271,60.282,271,75C271,89.721,262.962,103.445,256.001,112.57z M376,240c-14.712,0-28.427-8.027-37.552-14.986
			C347.594,218.049,361.338,210,376,210c14.712,0,28.427,8.027,37.552,14.986C404.405,231.951,390.662,240,376,240z"/>
	</g>
</g>
<g>
</g>
<g>
</g>
<g>
</g>
<g>
</g>
<g>
</g>
<g>
</g>
<g>
</g>
<g>
</g>
<g>
</g>
<g>
</g>
<g>
</g>
<g>
</g>
<g>
</g>
<g>
</g>
<g>
</g>
</svg>
