<?xml version="1.0" encoding="iso-8859-1"?>
<!-- Generator: Adobe Illustrator 19.0.0, SVG Export Plug-In . SVG Version: 6.00 Build 0)  -->
<svg version="1.1" id="Capa_1" xmlns="http://www.w3.org/2000/svg" xmlns:xlink="http://www.w3.org/1999/xlink" x="0px" y="0px"
	 viewBox="0 0 512 512" style="enable-background:new 0 0 512 512;" xml:space="preserve">
<g>
	<g>
		<path d="M379.106,306.393c-7.326-7.325-13.183-15.726-17.442-24.84c-0.157-0.403-0.333-0.796-0.524-1.182
			c-4.992-11.114-7.641-23.249-7.641-35.798V135c0-8.284-6.716-15-15-15h-15v-15c0-8.271,6.729-15,15-15h45
			c11.124,0,18.402-11.737,13.416-21.708l-30-60C364.376,3.21,359.182,0,353.5,0h-240c-8.284,0-15,6.716-15,15v60
			c0,8.284,6.716,15,15,15h43.635c-4.593,25.084-20.584,46.704-44.009,58.416c-7.41,3.705-10.413,12.715-6.708,20.125
			c2.628,5.256,7.925,8.295,13.428,8.295c2.254,0,4.543-0.51,6.696-1.587c18.631-9.315,34.267-23.605,45.218-41.324
			c8.302-13.434,13.63-28.396,15.725-43.925H218.5c8.271,0,15,6.729,15,15v15h-15c-8.284,0-15,6.716-15,15v109.574
			c0,12.555-2.652,24.697-7.649,35.815c-0.186,0.377-0.358,0.761-0.512,1.155c-4.26,9.118-10.118,17.521-17.446,24.849
			c-22.179,22.179-34.393,51.667-34.393,83.033V467c0,24.813,20.187,45,45,45h180c24.813,0,45-20.187,45-45v-77.574
			C413.5,358.06,401.285,328.572,379.106,306.393z M158.5,60h-30V30h30V60z M326.71,272H293.5v-60h30v32.574
			C323.5,253.932,324.596,263.121,326.71,272z M218.5,60h-30V30h155.729l15,30H338.5c-24.813,0-45,20.187-45,45v15h-30v-15
			C263.5,80.187,243.313,60,218.5,60z M233.5,150c7.836,0,82.566,0,90,0v32h-90V150z M233.5,244.574V212h30v60h-33.21
			C232.404,263.12,233.5,253.932,233.5,244.574z M383.5,467c0,8.271-6.729,15-15,15h-180c-8.271,0-15-6.729-15-15v-77.574
			c0-23.352,9.094-45.307,25.607-61.82c7.725-7.725,14.236-16.338,19.448-25.606H263.5v135c0,8.284,6.716,15,15,15s15-6.716,15-15
			V302h44.945c5.212,9.269,11.724,17.882,19.449,25.607c16.513,16.512,25.606,38.467,25.606,61.82V467z"/>
	</g>
</g>
<g>
</g>
<g>
</g>
<g>
</g>
<g>
</g>
<g>
</g>
<g>
</g>
<g>
</g>
<g>
</g>
<g>
</g>
<g>
</g>
<g>
</g>
<g>
</g>
<g>
</g>
<g>
</g>
<g>
</g>
</svg>
