<?xml version="1.0" encoding="iso-8859-1"?>
<!-- Generator: Adobe Illustrator 19.0.0, SVG Export Plug-In . SVG Version: 6.00 Build 0)  -->
<svg version="1.1" id="Capa_1" xmlns="http://www.w3.org/2000/svg" xmlns:xlink="http://www.w3.org/1999/xlink" x="0px" y="0px"
	 viewBox="0 0 512 512" style="enable-background:new 0 0 512 512;" xml:space="preserve">
<g>
	<g>
		<path d="M406,300h-61.596C363.887,280.927,376,254.354,376,225c0-8.284-6.716-15-15-15c-38.151,0-71.612,20.455-90,50.971V210
			c41.355,0,75-33.645,75-75V60h15c8.284,0,15-6.716,15-15s-6.716-15-15-15h-30c-13.182,0-25.8,2.448-37.434,6.903
			c-12.938-19.869-26.865-32.456-27.559-33.078c-5.696-5.1-14.316-5.1-20.013,0c-0.694,0.622-14.613,13.203-27.549,33.062
			C206.664,32.396,194.006,30,181,30h-30c-8.284,0-15,6.716-15,15s6.716,15,15,15h15v75c0,41.355,33.645,75,75,75v50.971
			C222.612,230.455,189.151,210,151,210c-8.284,0-15,6.716-15,15c0,29.354,12.113,55.927,31.596,75H106c-8.284,0-15,6.716-15,15v32
			c0,20.61,13.932,38.016,32.87,43.325l27.578,110.313C153.117,507.315,159.117,512,166,512h180c6.883,0,12.883-4.685,14.552-11.362
			l27.578-110.313C407.068,385.016,421,367.61,421,347v-32C421,306.715,414.284,300,406,300z M226,135v42.42
			c-17.459-6.193-30-22.865-30-42.42V61.506c16.32,3.319,31.095,12.011,42.007,24.782C230.345,100.856,226,117.429,226,135z
			 M344.074,241.926c-6.435,27.791-28.357,49.714-56.148,56.148C294.36,270.283,316.283,248.36,344.074,241.926z M316,61.507V135
			c0,24.813-20.187,45-45,45h-15v-45C256,98.781,281.81,68.476,316,61.507z M256.015,36.722c3.431,3.998,7.392,9.019,11.301,14.855
			c-3.992,3.055-7.758,6.388-11.271,9.972c-3.543-3.624-7.33-6.965-11.32-10.014C248.621,45.737,252.583,40.723,256.015,36.722z
			 M224.074,298.074c-27.791-6.434-49.714-28.357-56.148-56.148C195.717,248.36,217.64,270.283,224.074,298.074z M334.288,482
			H177.711l-22.5-90h201.577L334.288,482z M391,347c0,8.271-6.729,15-15,15H136c-8.271,0-15-6.729-15-15v-17h270V347z"/>
	</g>
</g>
<g>
</g>
<g>
</g>
<g>
</g>
<g>
</g>
<g>
</g>
<g>
</g>
<g>
</g>
<g>
</g>
<g>
</g>
<g>
</g>
<g>
</g>
<g>
</g>
<g>
</g>
<g>
</g>
<g>
</g>
</svg>
