<?xml version="1.0" encoding="iso-8859-1"?>
<!-- Generator: Adobe Illustrator 19.0.0, SVG Export Plug-In . SVG Version: 6.00 Build 0)  -->
<svg version="1.1" id="Capa_1" xmlns="http://www.w3.org/2000/svg" xmlns:xlink="http://www.w3.org/1999/xlink" x="0px" y="0px"
	 viewBox="0 0 512 512" style="enable-background:new 0 0 512 512;" xml:space="preserve">
<g>
	<g>
		<path d="M482.987,240.546c-24.7-33.213-62.801-55.231-104.553-60.421c-3.905-0.518-7.838-0.875-11.789-1.092
			c27.227-51.822,64.769-93.77,108.603-121.326c6.195-3.895,8.676-11.691,5.871-18.449c-2.805-6.759-10.078-10.507-17.209-8.869
			c-63.657,14.612-123.165,51.038-170.598,96.535l-22.97-114.856C268.94,5.057,262.784,0.01,255.634,0.01
			c-7.15,0-13.306,5.047-14.707,12.058l-22.707,113.537C171.427,81.071,112.382,44.94,48.997,30.389
			c-7.133-1.637-14.404,2.111-17.209,8.869c-2.805,6.758-0.325,14.554,5.871,18.449c43.834,27.557,81.377,69.504,108.579,121.281
			c-4.196,0.21-8.372,0.589-12.516,1.139c-87.02,10.82-144.643,90.154-131.98,167.3c1.19,7.252,7.458,12.57,14.8,12.57
			c0.019,0,0.038,0,0.057,0c7.368-0.028,13.625-5.402,14.763-12.682c4.078-26.069,18.812-50.065,39.416-64.191
			c0.029-0.02,0.058-0.04,0.086-0.06c38.106-26.521,85.775-15.767,104.923,16.584c0.069,0.115,0.13,0.233,0.198,0.349h-71.946
			c-8.284,0-14.999,6.716-14.999,14.999v31.999c0,20.361,14.874,38.075,34.482,43.375l27.564,110.257
			c1.669,6.677,7.669,11.362,14.551,11.362H345.63c6.883,0,12.883-4.685,14.551-11.362l27.585-110.342
			c18.36-5.295,31.26-22.416,31.26-43.29v-31.999c0-8.284-6.716-14.999-14.999-14.999h-67.846c0.077-0.13,0.146-0.263,0.224-0.393
			c8.824-14.906,24.976-26.094,43.283-29.943c20.504-4.419,42.926,0.465,61.515,13.402c0.029,0.02,0.058,0.04,0.086,0.06
			c20.602,14.124,35.337,38.122,39.416,64.191c1.139,7.279,7.396,12.654,14.763,12.682c0.019,0,0.038,0,0.057,0
			c7.343,0,13.611-5.319,14.8-12.57C516.3,311.022,506.08,271.071,482.987,240.546z M390.553,91.313
			c-23.71,26.914-43.854,58.372-58.152,89.473c-24.04,3.735-47.593,12.637-68.276,26.02
			C299.633,156.779,343.553,117.889,390.553,91.313z M255.634,91.492l12.384,61.918c-3.939,4.497-7.796,9.094-11.572,13.781
			c-4.202-5.215-8.505-10.307-12.896-15.277L255.634,91.492z M122.356,91.311c41.254,23.325,81.868,57.417,115.464,100.705
			c-1.465,2.1-2.917,4.212-4.351,6.342c-16.638-8.6-34.621-14.514-52.902-17.443C166.264,149.774,146.122,118.286,122.356,91.311z
			 M138.798,240.338c-27.595-5.95-58.842-0.397-86.27,18.939c21.683-29.035,52.711-45.393,84.955-49.389
			c0.045-0.006,0.09-0.011,0.135-0.018c36.264-4.827,75.641,6.453,105.325,30.175c0.042,0.033,0.083,0.066,0.125,0.099
			c19.663,15.374,35.48,36.189,45.779,59.854h-79.911c-1.913-5.399-4.362-10.647-7.36-15.671
			C188.348,261.976,165.439,245.936,138.798,240.338z M333.92,481.992H177.349l-22.499-89.997h201.57L333.92,481.992z
			 M389.029,329.997v16.999c0,8.691-5.404,14.999-13.399,14.999H135.638c-8.688,0-16.599-7.149-16.599-14.999v-16.999
			C123.143,329.997,381.361,329.997,389.029,329.997z M458.295,258.412c-25.383-17.646-56.336-24.237-84.852-18.089
			c-25.214,5.3-47.032,19.886-60.505,40.26c-8.663-17.759-20.013-34.014-33.503-47.948c28.166-18.603,62.866-27.054,95.113-22.763
			c0.045,0.006,0.09,0.012,0.135,0.018c33.703,4.176,64.415,21.889,84.262,48.599c0.027,0.037,0.055,0.074,0.083,0.11
			c0.171,0.227,0.341,0.453,0.511,0.681C459.126,258.986,458.712,258.698,458.295,258.412z"/>
	</g>
</g>
<g>
</g>
<g>
</g>
<g>
</g>
<g>
</g>
<g>
</g>
<g>
</g>
<g>
</g>
<g>
</g>
<g>
</g>
<g>
</g>
<g>
</g>
<g>
</g>
<g>
</g>
<g>
</g>
<g>
</g>
</svg>
