<?xml version="1.0" encoding="iso-8859-1"?>
<!-- Generator: Adobe Illustrator 19.0.0, SVG Export Plug-In . SVG Version: 6.00 Build 0)  -->
<svg version="1.1" id="Capa_1" xmlns="http://www.w3.org/2000/svg" xmlns:xlink="http://www.w3.org/1999/xlink" x="0px" y="0px"
	 viewBox="0 0 512 512" style="enable-background:new 0 0 512 512;" xml:space="preserve">
<g>
	<g>
		<path d="M491.893,20.106c-28.925-28.925-76.665-26.297-102.232,5.662c-0.037,0.046-0.073,0.092-0.109,0.138l-110.975,142.09
			l-52.384,52.384l-53.035-53.036c-5.857-5.858-15.356-5.858-21.214,0l-59.727,59.727C21.677,297.61-11.356,397.728,3.494,496.517
			c0.991,6.593,6.216,11.742,12.824,12.636c97.352,13.165,195.454-19.779,264.869-89.195l61.684-61.684
			c5.858-5.858,5.858-15.356,0-21.214l-53.035-53.035l52.312-52.312l143.782-109.137c0.102-0.077,0.202-0.155,0.302-0.235
			C518.175,96.785,520.833,49.048,491.893,20.106z M311.049,347.666l-51.076,51.076c-59.686,59.686-144.285,89.88-228.28,81.98
			c-9.303-85.347,20.796-171.495,81.737-232.436l49.12-49.119l42.429,42.428l-44.249,44.249
			c-22.18,22.18-34.396,51.669-34.396,83.037c0,8.284,6.716,15.001,15.001,15.001c31.367,0,60.857-12.215,83.037-34.396
			l44.249-44.249L311.049,347.666z M203.158,328.272c-12.541,12.541-28.22,20.802-45.266,24.052
			c3.25-17.046,11.512-32.726,24.052-45.266l107.891-107.891l21.214,21.214L203.158,328.272z M467.626,98.801L333.617,200.52
			l-23.793-23.792L413.138,44.447c14.459-17.998,41.232-19.434,57.54-3.126C487.003,57.645,485.513,84.363,467.626,98.801z"/>
	</g>
</g>
<g>
	<g>
		<circle cx="438.86" cy="73.143" r="15.001"/>
	</g>
</g>
<g>
</g>
<g>
</g>
<g>
</g>
<g>
</g>
<g>
</g>
<g>
</g>
<g>
</g>
<g>
</g>
<g>
</g>
<g>
</g>
<g>
</g>
<g>
</g>
<g>
</g>
<g>
</g>
<g>
</g>
</svg>
