<?xml version="1.0" encoding="iso-8859-1"?>
<!-- Generator: Adobe Illustrator 19.0.0, SVG Export Plug-In . SVG Version: 6.00 Build 0)  -->
<svg version="1.1" id="Capa_1" xmlns="http://www.w3.org/2000/svg" xmlns:xlink="http://www.w3.org/1999/xlink" x="0px" y="0px"
	 viewBox="0 0 512.002 512.002" style="enable-background:new 0 0 512.002 512.002;" xml:space="preserve">
<g>
	<g>
		<path d="M406.001,302.002h-86.459l3.167-1.583c7.41-3.705,10.413-12.715,6.708-20.125c-3.705-7.41-12.716-10.413-20.125-6.708
			l-38.291,19.145v-30.277c7.301-5.988,18.563-16.81,25.013-30.836c14.609,5.408,33.556,5.74,47.731,2.956
			c5.979-1.175,10.652-5.849,11.827-11.827c0.658-3.351,4.802-26.752-2.963-47.729c20.322-9.342,33.94-28.819,35.844-31.654
			c3.396-5.058,3.396-11.668,0-16.726c-1.904-2.835-15.522-22.312-35.844-31.654c7.764-20.976,3.621-44.378,2.963-47.729
			c-1.175-5.978-5.849-10.652-11.827-11.827c-3.351-0.658-26.751-4.8-47.727,2.963c-9.342-20.322-28.819-33.94-31.654-35.844
			c-5.058-3.396-11.668-3.396-16.726,0c-2.835,1.904-22.312,15.521-31.654,35.844c-20.977-7.765-44.378-3.622-47.728-2.963
			c-5.979,1.175-10.652,5.849-11.827,11.827c-0.658,3.351-4.801,26.752,2.963,47.728c-20.323,9.342-33.94,28.819-35.844,31.654
			c-3.396,5.058-3.396,11.667,0,16.726c1.904,2.835,15.521,22.312,35.844,31.654c-7.764,20.976-3.621,44.377-2.963,47.728
			c1.175,5.979,5.849,10.652,11.827,11.827c14.11,2.771,33.055,2.477,47.731-2.956c6.45,14.027,17.713,24.848,25.014,30.836v30.277
			l-38.292-19.146c-7.409-3.705-16.42-0.701-20.125,6.708s-0.701,16.419,6.708,20.125l3.167,1.583h-86.458c-8.284,0-15,6.716-15,15
			v30c0,20.61,13.932,38.016,32.87,43.325l27.578,110.313c1.669,6.68,7.669,11.365,14.552,11.365h180
			c6.883,0,12.883-4.685,14.552-11.362l27.578-110.313c18.938-5.309,32.87-22.715,32.87-43.325v-30
			C421.001,308.718,414.285,302.002,406.001,302.002z M356.652,134.99c-6.533,6.901-16.365,15.012-25.651,15.012
			c-9.226,0-19.03-7.982-25.661-14.999c6.639-7.025,16.438-15.001,25.661-15.001C340.222,120.002,350.022,127.977,356.652,134.99z
			 M291.218,90.284c3.879-5.99,7.083-12.787,8.679-20.215c6.811-5.394,18.293-6.49,27.267-6.247c0.241,8.836-0.8,20.423-6.23,27.284
			c-7.429,1.596-14.225,4.8-20.215,8.678c-3.471,0.363-6.845,0.422-9.828,0.328C290.798,97.13,290.855,93.755,291.218,90.284z
			 M290.891,169.892c2.979-0.093,6.357-0.036,9.828,0.327c5.99,3.879,12.787,7.083,20.215,8.679
			c5.397,6.815,6.499,18.31,6.246,27.281c-8.984,0.258-20.471-0.85-27.283-6.244c-1.596-7.429-4.8-14.225-8.679-20.215
			C290.855,176.249,290.797,172.873,290.891,169.892z M155.34,135.003c6.639-7.025,16.438-15.001,25.661-15.001
			c9.221,0,19.021,7.975,25.651,14.988c-6.533,6.901-16.365,15.012-25.651,15.012C171.775,150.002,161.971,142.02,155.34,135.003z
			 M220.784,179.72c-3.879,5.99-7.083,12.787-8.679,20.216c-6.815,5.397-18.305,6.498-27.281,6.246
			c-0.254-8.983,0.849-20.471,6.244-27.284c7.429-1.596,14.225-4.8,20.215-8.679c3.471-0.363,6.846-0.421,9.828-0.327
			C221.204,172.874,221.147,176.249,220.784,179.72z M221.111,100.115c-2.977,0.092-6.353,0.034-9.827-0.33
			c-5.99-3.879-12.787-7.083-20.216-8.679c-5.397-6.815-6.5-18.31-6.247-27.281c8.983-0.253,20.472,0.85,27.284,6.244
			c1.596,7.429,4.8,14.225,8.679,20.215C221.147,93.756,221.205,97.133,221.111,100.115z M256,34.341
			c7.025,6.639,15.001,16.438,15.001,25.661c0,9.226-7.982,19.03-14.999,25.661c-7.025-6.639-15.001-16.438-15.001-25.661
			C241.001,50.776,248.983,40.972,256,34.341z M256.001,120.002c8.271,0,15,6.729,15,15s-6.729,15-15,15s-15-6.729-15-15
			S247.73,120.002,256.001,120.002z M256,184.341c7.025,6.639,15.001,16.438,15.001,25.661c0,9.226-7.982,19.03-14.999,25.661
			c-7.025-6.639-15.001-16.438-15.001-25.661C241.001,200.776,248.983,190.972,256,184.341z M334.29,482.002H177.712l-22.5-90
			h201.577L334.29,482.002z M391.001,347.002c0,8.271-6.729,15-15,15h-240c-8.271,0-15-6.729-15-15v-15c10.087,0,260.264,0,270,0
			V347.002z"/>
	</g>
</g>
<g>
</g>
<g>
</g>
<g>
</g>
<g>
</g>
<g>
</g>
<g>
</g>
<g>
</g>
<g>
</g>
<g>
</g>
<g>
</g>
<g>
</g>
<g>
</g>
<g>
</g>
<g>
</g>
<g>
</g>
</svg>
