<?xml version="1.0" encoding="iso-8859-1"?>
<!-- Generator: Adobe Illustrator 19.0.0, SVG Export Plug-In . SVG Version: 6.00 Build 0)  -->
<svg version="1.1" id="Capa_1" xmlns="http://www.w3.org/2000/svg" xmlns:xlink="http://www.w3.org/1999/xlink" x="0px" y="0px"
	 viewBox="0 0 511.999 511.999" style="enable-background:new 0 0 511.999 511.999;" xml:space="preserve">
<g>
	<g>
		<path d="M502.996,138.006L502.996,138.006l-72.008-96.009C411.264,15.7,379.865,0,346.994,0H204.192
			c-33.752,0-67.234,10.617-94.843,29.987c-1.172,0.007-2.372,0.011-3.339,0.011H15.016c-8.283,0-14.999,6.716-14.999,14.999
			v119.992c0,8.283,6.716,14.999,14.999,14.999h115.332l11.293,9.938c19.772,17.399,44.566,26.098,69.361,26.098
			c24.795,0,49.59-8.699,69.361-26.098c6.993-6.155,10.046-9.938,16.953-9.938h49.677c20.169,0,37.28-13.339,42.978-31.658
			l44.079,47.319c0.002,0.002,0.003,0.004,0.005,0.005c8.484,9.108,20.487,14.332,32.931,14.332
			c24.811,0,44.997-20.186,44.997-44.997C511.982,155.173,508.874,145.843,502.996,138.006z M456.006,175.208
			c-0.002-0.002-0.003-0.003-0.005-0.005l-66.029-70.882c-8.481-9.105-20.483-14.327-32.925-14.327h-87.655
			c-5.718,0-10.858-3.177-13.415-8.291c-3.704-7.409-12.712-10.413-20.124-6.708c-7.409,3.705-10.412,12.714-6.708,20.124
			c7.671,15.342,23.093,24.873,40.246,24.873h77.601c8.27,0,14.999,6.729,14.999,14.999c0,8.27-6.729,14.999-14.999,14.999h-49.677
			c-18.877,0-28.807,10.408-36.77,17.416c-28.244,24.855-70.842,24.855-99.087,0c-16.303-14.347-18.324-17.416-25.45-17.416H30.016
			V59.996h75.995c8.667,0,12.664,0.386,17.296-3.081c23.19-17.358,51.916-26.917,80.885-26.917h142.802
			c23.479,0,45.908,11.214,59.996,29.998l72.009,96.011l0.001,0.001c1.953,2.603,2.985,5.708,2.985,8.98
			C481.984,178.609,465.227,185.109,456.006,175.208z"/>
	</g>
</g>
<g>
	<g>
		<path d="M324.358,244.53c-5.058-3.396-11.667-3.396-16.725,0c-3.75,2.519-36.634,25.524-36.634,57.449s32.885,54.93,36.634,57.449
			c5.057,3.396,11.667,3.397,16.725,0c3.75-2.519,36.634-25.524,36.634-57.449S328.108,247.049,324.358,244.53z M315.997,327.638
			c-7.024-6.638-15-16.437-15-25.659c0-9.225,7.981-19.029,14.998-25.659c7.025,6.638,15,16.437,15,25.659
			C330.995,311.204,323.012,321.007,315.997,327.638z"/>
	</g>
</g>
<g>
	<g>
		<path d="M452.525,370.761c-1.175-5.977-5.849-10.65-11.827-11.825c-4.432-0.87-43.953-7.855-66.526,14.717
			c-22.573,22.573-15.588,62.095-14.717,66.526c1.175,5.979,5.849,10.651,11.826,11.826c20.948,4.114,49.843,1.967,66.527-14.718
			C460.382,414.714,453.396,375.193,452.525,370.761z M416.596,416.077c-6.524,6.523-19.093,7.808-28.749,7.539
			c-0.273-9.662,1.016-22.23,7.536-28.751c6.523-6.524,19.094-7.81,28.749-7.539C424.405,396.988,423.116,409.556,416.596,416.077z"
			/>
	</g>
</g>
<g>
	<g>
		<path d="M317.816,431.95c-22.574-22.573-62.096-15.588-66.527-14.718c-5.979,1.175-10.651,5.849-11.826,11.826
			c-0.871,4.432-7.855,43.953,14.718,66.526c13.469,13.469,32.972,16.415,47.454,16.415c9.789,0,17.286-1.346,19.074-1.697
			c5.978-1.175,10.651-5.849,11.826-11.826C333.405,494.044,340.389,454.523,317.816,431.95z M304.144,481.896
			c-9.505,0.255-22.186-0.958-28.751-7.523c-6.521-6.521-7.81-19.087-7.54-28.735c9.503-0.257,22.186,0.957,28.752,7.523
			C303.124,459.682,304.414,472.249,304.144,481.896z"/>
	</g>
</g>
<g>
</g>
<g>
</g>
<g>
</g>
<g>
</g>
<g>
</g>
<g>
</g>
<g>
</g>
<g>
</g>
<g>
</g>
<g>
</g>
<g>
</g>
<g>
</g>
<g>
</g>
<g>
</g>
<g>
</g>
</svg>
