<?xml version="1.0" encoding="iso-8859-1"?>
<!-- Generator: Adobe Illustrator 19.0.0, SVG Export Plug-In . SVG Version: 6.00 Build 0)  -->
<svg version="1.1" id="Capa_1" xmlns="http://www.w3.org/2000/svg" xmlns:xlink="http://www.w3.org/1999/xlink" x="0px" y="0px"
	 viewBox="0 0 512 512" style="enable-background:new 0 0 512 512;" xml:space="preserve">
<g>
	<g>
		<path d="M406,302H271v-34.611c6.603-2.358,12.586-6.23,17.441-11.314c11.59,3.394,24.281,2.062,35.061-4.162
			c10.777-6.224,18.274-16.547,21.13-28.281c11.734-2.856,22.06-10.355,28.282-21.133c6.222-10.778,7.553-23.468,4.161-35.057
			C385.809,159.102,391,147.447,391,135c0-12.446-5.192-24.103-13.926-32.444c3.393-11.589,2.062-24.279-4.16-35.055
			c-6.223-10.781-16.548-18.28-28.283-21.136c-2.856-11.732-10.354-22.056-21.131-28.279c-10.778-6.222-23.466-7.555-35.056-4.16
			C280.104,5.192,268.447,0,256,0c-12.446,0-24.103,5.192-32.444,13.926c-11.589-3.394-24.279-2.062-35.056,4.16
			c-10.778,6.223-18.276,16.545-21.132,28.279c-11.733,2.856-22.059,10.356-28.282,21.135c-6.222,10.777-7.554,23.467-4.161,35.056
			C126.192,110.896,121,122.553,121,135c0,12.447,5.191,24.102,13.925,32.442c-3.393,11.589-2.061,24.279,4.161,35.058
			c6.223,10.778,16.546,18.277,28.282,21.132c2.856,11.733,10.354,22.057,21.131,28.281c10.779,6.223,23.467,7.556,35.059,4.161
			c4.855,5.084,10.838,8.956,17.441,11.314V302H106c-8.284,0-15,6.716-15,15v30c0,20.61,13.932,38.016,32.87,43.325l27.578,110.313
			C153.117,507.315,159.117,512,166,512h180c6.883,0,12.883-4.685,14.552-11.362l27.578-110.313C407.068,385.016,421,367.61,421,347
			v-30C421,308.716,414.284,302,406,302z M219.808,224.977c-10.569,7.702-25.017-0.658-23.634-13.647
			c1.014-9.521-7.037-17.513-16.503-16.504c-13.023,1.381-21.331-13.09-13.647-23.634c5.63-7.725,2.68-18.678-6.041-22.546
			c-11.955-5.302-11.937-21.999,0-27.294c8.72-3.868,11.67-14.819,6.042-22.545c-7.702-10.572,0.661-25.018,13.644-23.635
			c9.488,1.011,17.518-6.998,16.506-16.504c-1.381-12.978,13.056-21.35,23.633-13.645c7.74,5.64,18.684,2.662,22.544-6.041
			c5.304-11.955,22.001-11.939,27.296,0c3.874,8.735,14.832,11.66,22.544,6.042c10.572-7.701,25.017,0.658,23.634,13.644
			c-1.014,9.518,7.034,17.515,16.506,16.504c12.974-1.386,21.35,13.059,13.644,23.635c-5.639,7.74-2.661,18.684,6.041,22.544
			c11.954,5.303,11.94,21.999,0.001,27.294c-8.738,3.876-11.66,14.836-6.041,22.546c7.703,10.571-0.662,25.011-13.647,23.634
			c-9.495-1.012-17.515,7.008-16.503,16.504c1.384,13.005-13.08,21.338-23.634,13.647c-6.741-4.914-16.337-3.43-21.192,3.659
			v-27.423l25.606-25.606c5.858-5.858,5.858-15.355,0-21.213c-5.857-5.857-15.355-5.857-21.213,0L271,158.787V105
			c0-8.284-6.716-15-15-15s-15,6.716-15,15v23.787l-4.394-4.394c-5.857-5.857-15.355-5.857-21.213,0
			c-5.858,5.858-5.858,15.355,0,21.213L241,171.213v57.423C236.175,221.592,226.593,220.032,219.808,224.977z M334.289,482H177.711
			l-22.5-90h201.577L334.289,482z M391,347c0,8.271-6.729,15-15,15H136c-8.271,0-15-6.729-15-15v-15h270V347z"/>
	</g>
</g>
<g>
</g>
<g>
</g>
<g>
</g>
<g>
</g>
<g>
</g>
<g>
</g>
<g>
</g>
<g>
</g>
<g>
</g>
<g>
</g>
<g>
</g>
<g>
</g>
<g>
</g>
<g>
</g>
<g>
</g>
</svg>
