<?xml version="1.0" encoding="iso-8859-1"?>
<!-- Generator: Adobe Illustrator 19.0.0, SVG Export Plug-In . SVG Version: 6.00 Build 0)  -->
<svg version="1.1" id="Capa_1" xmlns="http://www.w3.org/2000/svg" xmlns:xlink="http://www.w3.org/1999/xlink" x="0px" y="0px"
	 viewBox="0 0 512 512" style="enable-background:new 0 0 512 512;" xml:space="preserve">
<g>
	<g>
		<path d="M464.417,160.292L421,73.459V15c0-8.284-6.716-15-15-15H106c-8.284,0-15,6.716-15,15v58.459l-43.417,86.833
			C46.542,162.375,46,164.671,46,167v300c0,24.813,20.187,45,45,45h330c24.813,0,45-20.187,45-45V167
			C466,164.671,465.458,162.375,464.417,160.292z M121,30h270v32H121V30z M436,467c0,8.271-6.729,15-15,15H91
			c-8.271,0-15-6.729-15-15V170.541L115.271,92H396.73L436,170.541V467z"/>
	</g>
</g>
<g>
	<g>
		<path d="M256,137c-82.71,0-150,67.29-150,150s67.29,150,150,150s150-67.29,150-150S338.71,137,256,137z M256,407
			c-66.168,0-120-53.832-120-120s53.832-120,120-120s120,53.832,120,120S322.168,407,256,407z"/>
	</g>
</g>
<g>
	<g>
		<path d="M347.548,240.699c-1.075-6.266-5.983-11.174-12.249-12.249c-18.818-3.226-31.884-0.529-42.184,2.535
			c-0.164,0.049-0.328,0.101-0.49,0.155c-14.373,4.818-26.883,13.377-36.138,25.876c-9.174-12.392-21.64-21.015-36.139-25.876
			c-0.163-0.054-0.326-0.106-0.49-0.155c-10.298-3.064-23.363-5.761-42.185-2.534c-6.266,1.074-11.174,5.983-12.249,12.249
			c-3.227,18.815-0.53,31.883,2.534,42.184c0.049,0.165,0.101,0.329,0.155,0.492c3.782,11.278,9.75,21.079,17.724,29.115
			c14.551,14.708,34.642,21.95,55.162,22.002V362c0,8.284,6.716,15,15,15s15-6.716,15-15v-27.51
			c0.252,0.002,0.509,0.008,0.759,0.008c20.514,0,40.746-7.216,55.361-21.991C343.705,295.791,352.628,270.319,347.548,240.699z
			 M240.999,304.496c-12.596-0.051-25.007-4.181-33.85-13.119c-8.952-9.022-13.198-21.516-13.186-34.387
			c12.757-0.052,25.344,4.214,34.403,13.203c7.835,7.75,11.884,18.102,12.886,29.124
			C240.943,301.022,240.999,301.837,240.999,304.496z M305.808,291.393c-8.958,9.056-21.625,13.16-34.312,13.111
			c-0.061-12.689,4.063-25.362,13.126-34.327c9.029-8.957,21.505-13.187,34.331-13.187c0.02,0,0.038,0,0.057,0
			C319.023,269.874,314.775,282.356,305.808,291.393z"/>
	</g>
</g>
<g>
</g>
<g>
</g>
<g>
</g>
<g>
</g>
<g>
</g>
<g>
</g>
<g>
</g>
<g>
</g>
<g>
</g>
<g>
</g>
<g>
</g>
<g>
</g>
<g>
</g>
<g>
</g>
<g>
</g>
</svg>
