<?xml version="1.0" encoding="iso-8859-1"?>
<!-- Generator: Adobe Illustrator 19.0.0, SVG Export Plug-In . SVG Version: 6.00 Build 0)  -->
<svg version="1.1" id="Capa_1" xmlns="http://www.w3.org/2000/svg" xmlns:xlink="http://www.w3.org/1999/xlink" x="0px" y="0px"
	 viewBox="0 0 512 512" style="enable-background:new 0 0 512 512;" xml:space="preserve">
<g>
	<g>
		<path d="M430.029,165C460.545,146.612,481,113.151,481,75c0-8.284-6.716-15-15-15c-37.408,0-70.304,19.668-88.907,49.202
			C376.371,102.842,376,96.435,376,90c0-31.055,7.74-50.786,14.23-70.257C393.463,10.045,386.235,0,376,0h-90
			c-10.222,0-17.467,10.034-14.23,19.743C278.267,39.235,286,58.929,286,90c0,18.291-2.933,36.364-8.717,53.717
			c-8.327,24.984-8.384,17.413,0,42.566C283.067,203.636,286,221.709,286,240c0,27.52-6.262,46.351-10.811,60h-38.377
			C233.406,289.785,226,269.442,226,240c0-18.292,2.933-36.365,8.717-53.717c8.39-25.171,8.266-17.766,0-42.566
			C228.933,126.365,226,108.292,226,90c0-31.055,7.74-50.786,14.23-70.257c1.525-4.574,0.758-9.603-2.062-13.514
			C235.35,2.318,230.822,0,226,0h-90c-10.222,0-17.467,10.034-14.23,19.743C128.267,39.235,136,58.929,136,90
			c0,18.291-2.933,36.364-8.717,53.717c-8.289,24.87-8.281,17.72,0,42.566C133.067,203.636,136,221.709,136,240
			c0,6.435-0.371,12.842-1.094,19.201C116.304,229.668,83.408,210,46,210c-8.284,0-15,6.716-15,15c0,41.802,24.557,77.973,60,94.855
			V347c0,20.61,13.932,38.016,32.87,43.325l27.578,110.313C153.117,507.315,159.117,512,166,512h180
			c6.883,0,12.883-4.685,14.552-11.362l27.578-110.313C407.068,385.016,421,367.61,421,347v-32c0-8.284-6.716-15-15-15h-19.189
			C383.406,289.785,376,269.442,376,240c0-6.435,0.371-12.842,1.093-19.202C395.696,250.332,428.592,270,466,270
			c8.284,0,15-6.716,15-15C481,216.849,460.545,183.388,430.029,165z M62.926,241.926c27.791,6.434,49.714,28.357,56.148,56.148
			C91.283,291.64,69.36,269.717,62.926,241.926z M306.782,30h48.437C349.1,49.434,346,69.601,346,90s3.1,40.567,9.218,60h-48.437
			C312.9,130.565,316,110.398,316,90S312.9,49.435,306.782,30z M355.218,300h-48.436C312.9,280.565,316,260.398,316,240
			s-3.1-40.565-9.218-60h48.437C349.1,199.434,346,219.601,346,240S349.1,280.567,355.218,300z M156.782,30h48.437
			C199.1,49.434,196,69.601,196,90s3.1,40.567,9.218,60h-48.437C162.9,130.565,166,110.398,166,90S162.9,49.435,156.782,30z
			 M166,240c0-20.398-3.1-40.565-9.218-60h48.437C199.1,199.434,196,219.601,196,240s3.1,40.567,9.218,60h-48.437
			C162.9,280.565,166,260.398,166,240z M334.289,482H177.711l-22.5-90h201.577L334.289,482z M391,330v17c0,8.271-6.729,15-15,15H136
			c-8.271,0-15-6.729-15-15v-17C144.073,330,379.801,330,391,330z M449.074,91.926c-6.434,27.791-28.357,49.714-56.148,56.148
			C399.36,120.283,421.283,98.36,449.074,91.926z M392.926,181.926c27.791,6.434,49.714,28.357,56.148,56.148
			C421.283,231.64,399.36,209.717,392.926,181.926z"/>
	</g>
</g>
<g>
</g>
<g>
</g>
<g>
</g>
<g>
</g>
<g>
</g>
<g>
</g>
<g>
</g>
<g>
</g>
<g>
</g>
<g>
</g>
<g>
</g>
<g>
</g>
<g>
</g>
<g>
</g>
<g>
</g>
</svg>
