<?xml version="1.0" encoding="iso-8859-1"?>
<!-- Generator: Adobe Illustrator 19.0.0, SVG Export Plug-In . SVG Version: 6.00 Build 0)  -->
<svg version="1.1" id="Capa_1" xmlns="http://www.w3.org/2000/svg" xmlns:xlink="http://www.w3.org/1999/xlink" x="0px" y="0px"
	 viewBox="0 0 512 512" style="enable-background:new 0 0 512 512;" xml:space="preserve">
<g>
	<g>
		<path d="M331,240c57.897,0,105-47.103,105-105v-30c0-24.813-20.187-45-45-45s-45,20.187-45,45v30c0,8.271-6.729,15-15,15h-15V60
			c0-33.084-26.916-60-60-60s-60,26.916-60,60v30h-15c-8.271,0-15-6.729-15-15V45c0-24.813-20.187-45-45-45S76,20.187,76,45v30
			c0,57.897,47.103,105,105,105h15v92h-90c-8.284,0-15,6.716-15,15v30c0,20.417,13.672,37.69,32.338,43.174l27.953,139.768
			C152.693,506.953,158.85,512,166,512h180c7.15,0,13.307-5.047,14.708-12.058l27.953-139.768C407.328,354.69,421,337.417,421,317
			v-30c0-8.284-6.716-15-15-15h-90v-32H331z M181,150c-41.355,0-75-33.645-75-75V45c0-8.271,6.729-15,15-15s15,6.729,15,15v30
			c0,24.813,20.187,45,45,45h15v30H181z M333.703,482H178.297l-24-120h203.406L333.703,482z M391,302v15c0,8.271-6.729,15-15,15
			h-0.02c-0.038,0-0.077,0-0.115,0H136.132c-0.036,0-0.072,0-0.108,0H136c-8.271,0-15-6.729-15-15v-15H391z M301,210
			c-8.284,0-15,6.716-15,15v47h-60V60c0-16.542,13.458-30,30-30s30,13.458,30,30v105c0,8.284,6.716,15,15,15h30
			c24.813,0,45-20.187,45-45v-30c0-8.271,6.729-15,15-15s15,6.729,15,15v30c0,41.355-33.645,75-75,75H301z"/>
	</g>
</g>
<g>
</g>
<g>
</g>
<g>
</g>
<g>
</g>
<g>
</g>
<g>
</g>
<g>
</g>
<g>
</g>
<g>
</g>
<g>
</g>
<g>
</g>
<g>
</g>
<g>
</g>
<g>
</g>
<g>
</g>
</svg>
