<?xml version="1.0" encoding="iso-8859-1"?>
<!-- Generator: Adobe Illustrator 19.0.0, SVG Export Plug-In . SVG Version: 6.00 Build 0)  -->
<svg version="1.1" id="Capa_1" xmlns="http://www.w3.org/2000/svg" xmlns:xlink="http://www.w3.org/1999/xlink" x="0px" y="0px"
	 viewBox="0 0 511.998 511.998" style="enable-background:new 0 0 511.998 511.998;" xml:space="preserve">
<g>
	<g>
		<circle cx="438.863" cy="73.263" r="15"/>
	</g>
</g>
<g>
	<g>
		<path d="M491.891,20.223c-28.924-28.926-76.663-26.298-102.23,5.662c-0.064,0.08-0.127,0.16-0.189,0.241L279.568,169.417
			L135.269,313.722L12.784,332.041c-8.193,1.225-13.842,8.86-12.616,17.055c1.113,7.441,7.513,12.783,14.816,12.783
			c0.738,0,1.485-0.055,2.237-0.167l105.319-15.75L6.593,424.456c-6.86,4.645-8.656,13.971-4.012,20.832
			c4.644,6.859,13.969,8.657,20.832,4.012l123.301-83.474l-84.079,122.57c-4.686,6.831-2.947,16.168,3.885,20.855
			c6.828,4.684,16.167,2.95,20.855-3.885l79.169-115.413l-16.357,104.61c-1.28,8.185,4.318,15.857,12.502,17.138
			c0.785,0.123,1.565,0.182,2.336,0.182c7.262,0,13.645-5.285,14.801-12.685L198.869,377.4l144.362-144.362l142.803-110.431
			c0.065-0.05,0.13-0.101,0.195-0.153C518.171,96.9,520.831,49.162,491.891,20.223z M184.807,349.04
			c-5.119-5.119-16.219-16.219-21.214-21.214l127.283-127.283l21.214,21.214L184.807,349.04z M467.58,98.958L334.573,201.813
			l-23.791-23.791L413.178,44.518c14.399-17.872,41.124-19.456,57.502-3.08C487.005,57.765,485.525,84.518,467.58,98.958z"/>
	</g>
</g>
<g>
</g>
<g>
</g>
<g>
</g>
<g>
</g>
<g>
</g>
<g>
</g>
<g>
</g>
<g>
</g>
<g>
</g>
<g>
</g>
<g>
</g>
<g>
</g>
<g>
</g>
<g>
</g>
<g>
</g>
</svg>
