<?xml version="1.0" encoding="iso-8859-1"?>
<!-- Generator: Adobe Illustrator 19.0.0, SVG Export Plug-In . SVG Version: 6.00 Build 0)  -->
<svg version="1.1" id="Capa_1" xmlns="http://www.w3.org/2000/svg" xmlns:xlink="http://www.w3.org/1999/xlink" x="0px" y="0px"
	 viewBox="0 0 512 512" style="enable-background:new 0 0 512 512;" xml:space="preserve">
<g>
	<g>
		<path d="M466,90h-33.642c-25.993,0-45.135,6.158-59.733,19.254c4.026-44.54,4.517-83.209,4.547-85.949
			c0.066-6.03-3.486-11.513-9.015-13.918c-5.53-2.407-11.963-1.266-16.329,2.893c-17.718,16.874-39.061,44.16-56.718,75.958
			c-5.029-28.358-13.582-55.545-25.674-79.906C266.903,3.228,261.697,0,256,0c-5.697,0-10.903,3.228-13.436,8.331
			c-12.091,24.361-20.645,51.547-25.674,79.906c-17.658-31.798-39-59.083-56.718-75.958c-4.366-4.157-10.798-5.297-16.329-2.893
			c-5.529,2.406-9.081,7.889-9.015,13.918c0.03,2.74,0.52,41.409,4.547,85.949C124.778,96.158,105.635,90,79.642,90H46
			c-8.284,0-15,6.716-15,15s6.716,15,15,15c29.294,0,35.415,19.109,43.291,66.029c4.349,25.905,8.845,52.692,23.159,74.621
			c2.175,3.332,4.51,6.448,7.006,9.35H106c-8.284,0-15,6.716-15,15v32c0,20.417,13.672,37.69,32.338,43.174l27.954,139.768
			C152.693,506.953,158.85,512,166,512h180c7.15,0,13.307-5.047,14.708-12.058l27.954-139.768C407.328,354.69,421,337.417,421,317
			v-32c0-8.284-6.716-15-15-15h-13.456c2.496-2.902,4.831-6.018,7.006-9.35c14.314-21.929,18.811-48.716,23.159-74.621
			C430.585,139.109,436.706,120,466,120c8.284,0,15-6.716,15-15S474.284,90,466,90z M300.48,148.917
			c10.642-30.733,27.957-60.572,45.162-83.798c-1.99,37.227-6.503,91.141-16.611,127.874c-8.947,18.614-21.274,37.471-42.44,54.811
			C295.95,216.517,300.581,182.705,300.48,148.917z M256,54.665c19.592,59.788,19.592,130.882,0,190.67
			C236.408,185.547,236.408,114.453,256,54.665z M211.52,148.917c-0.101,33.789,4.53,67.601,13.889,98.887
			c-21.167-17.34-33.493-36.196-42.44-54.811c-10.108-36.733-14.621-90.647-16.611-127.874
			C183.563,88.345,200.878,118.184,211.52,148.917z M118.877,181.063c-3.592-21.401-6.99-41.643-15.808-58.206
			c22.222,6.578,29.098,24.355,39.656,51.656c11.868,30.691,25.812,64.833,62.539,95.487h-9.265
			C133.806,270,126.888,228.786,118.877,181.063z M333.703,482H178.297l-24-120h203.406L333.703,482z M391,317
			c0,8.271-6.729,15-15,15h-0.032c-0.031,0-0.062,0-0.093,0H136.131c-0.036,0-0.072,0-0.108,0H136c-8.271,0-15-6.729-15-15v-17
			c8.826,0,249.207,0,270,0V317z M393.123,181.063C385.112,228.786,378.194,270,316.001,270h-9.265
			c35.195-29.377,49.323-61.312,62.539-95.487c10.557-27.301,17.434-45.078,39.656-51.656
			C400.113,139.42,396.715,159.662,393.123,181.063z"/>
	</g>
</g>
<g>
</g>
<g>
</g>
<g>
</g>
<g>
</g>
<g>
</g>
<g>
</g>
<g>
</g>
<g>
</g>
<g>
</g>
<g>
</g>
<g>
</g>
<g>
</g>
<g>
</g>
<g>
</g>
<g>
</g>
</svg>
