<?xml version="1.0" encoding="iso-8859-1"?>
<!-- Generator: Adobe Illustrator 19.0.0, SVG Export Plug-In . SVG Version: 6.00 Build 0)  -->
<svg version="1.1" id="Capa_1" xmlns="http://www.w3.org/2000/svg" xmlns:xlink="http://www.w3.org/1999/xlink" x="0px" y="0px"
	 viewBox="0 0 512 512" style="enable-background:new 0 0 512 512;" xml:space="preserve">
<g>
	<g>
		<path d="M406.169,265.729h-15.017V130.58c0-25.464-12.753-47.993-32.196-61.576l18.354-7.602
			c7.662-3.174,11.3-11.958,8.127-19.621c-3.174-7.662-11.957-11.299-19.621-8.127l-22,9.113l9.113-22
			c3.174-7.662-0.465-16.446-8.127-19.621c-7.661-3.173-16.447,0.464-19.621,8.127l-9.113,22l-9.113-22
			c-3.174-7.662-11.956-11.299-19.621-8.127c-7.662,3.173-11.3,11.958-8.127,19.621l9.113,22l-22-9.113
			c-7.662-3.172-16.446,0.465-19.621,8.127c-3.174,7.662,0.465,16.446,8.127,19.621l18.354,7.602
			c-8.861,6.191-16.327,14.237-21.832,23.578c-1.891,0.009-3.811,0.37-5.666,1.138l-22,9.113l9.113-22
			c3.173-7.662-0.465-16.446-8.127-19.621c-7.661-3.172-16.447,0.464-19.621,8.127l-9.113,22l-9.113-22
			c-3.174-7.662-11.957-11.299-19.621-8.127c-7.662,3.173-11.3,11.958-8.127,19.621l9.113,22l-22-9.113
			c-7.662-3.172-16.446,0.464-19.621,8.127c-3.174,7.662,0.464,16.446,8.127,19.621l18.354,7.602
			c-19.443,13.583-32.196,36.112-32.196,61.576v75.083h-15.017c-8.293,0-15.017,6.723-15.017,15.017v34.037
			c0,20.285,13.479,37.476,31.949,43.1l28.409,142.045c1.404,7.019,7.566,12.071,14.724,12.071h180.199
			c7.158,0,13.322-5.053,14.724-12.071l28.409-142.045c18.47-5.625,31.949-22.816,31.949-43.1v-34.037
			C421.185,272.452,414.462,265.729,406.169,265.729z M271.018,190.646V130.58h0.002c0-24.837,20.204-45.045,45.041-45.05
			c0.002,0,0.004,0,0.005,0c0.001,0,0.002,0,0.003,0c0.001,0,0.002,0,0.003,0c0.002,0,0.004,0,0.005,0
			c24.836,0.005,45.041,20.212,45.041,45.05v135.149h-45.05h-45.05V190.646z M150.885,190.646h0.002
			c0-24.837,20.204-45.045,45.041-45.05c0.002,0,0.004,0,0.005,0c0.001,0,0.002,0,0.003,0c0.001,0,0.002,0,0.003,0
			c0.002,0,0.004,0,0.005,0c24.836,0.005,45.041,20.212,45.041,45.05v75.083h-90.099V190.646z M333.792,481.967H178.214
			l-24.427-122.135h204.431L333.792,481.967z M391.152,314.783c0,8.28-6.736,15.017-15.017,15.017H135.871
			c-8.28,0-15.017-6.736-15.017-15.017v-19.021c9.125,0,260.448,0,270.298,0V314.783z"/>
	</g>
</g>
<g>
	<g>
		<path d="M195.937,175.63c-8.293,0-15.017,6.723-15.017,15.017v30.033c0,8.293,6.723,15.017,15.017,15.017
			s15.017-6.723,15.017-15.017v-30.033C210.954,182.353,204.23,175.63,195.937,175.63z"/>
	</g>
</g>
<g>
	<g>
		<path d="M316.069,115.564c-8.293,0-15.017,6.723-15.017,15.017v30.033c0,8.293,6.723,15.017,15.017,15.017
			s15.017-6.723,15.017-15.017V130.58C331.086,122.287,324.362,115.564,316.069,115.564z"/>
	</g>
</g>
<g>
	<g>
		<path d="M316.069,205.663c-8.293,0-15.017,6.723-15.017,15.017v30.033c0,8.293,6.723,15.017,15.017,15.017
			s15.017-6.723,15.017-15.017v-30.033C331.086,212.386,324.362,205.663,316.069,205.663z"/>
	</g>
</g>
<g>
</g>
<g>
</g>
<g>
</g>
<g>
</g>
<g>
</g>
<g>
</g>
<g>
</g>
<g>
</g>
<g>
</g>
<g>
</g>
<g>
</g>
<g>
</g>
<g>
</g>
<g>
</g>
<g>
</g>
</svg>
