<?xml version="1.0" encoding="iso-8859-1"?>
<!-- Generator: Adobe Illustrator 19.0.0, SVG Export Plug-In . SVG Version: 6.00 Build 0)  -->
<svg version="1.1" id="Capa_1" xmlns="http://www.w3.org/2000/svg" xmlns:xlink="http://www.w3.org/1999/xlink" x="0px" y="0px"
	 viewBox="0 0 512 512" style="enable-background:new 0 0 512 512;" xml:space="preserve">
<g>
	<g>
		<path d="M430.722,168.62c-0.91-0.729-17.742-14.054-42.89-23.593c17.01-20.836,24.923-40.795,25.346-41.881
			c3.491-8.953-2.22-18.859-11.729-20.314c-1.153-0.176-22.393-3.301-48.941,1.011c4.312-26.549,1.187-47.788,1.011-48.941
			c-1.454-9.501-11.351-15.222-20.315-11.73c-1.086,0.424-21.044,8.336-41.881,25.347c-9.54-25.148-22.864-41.979-23.593-42.89
			c-6.01-7.502-17.444-7.508-23.459,0c-0.729,0.91-14.054,17.742-23.593,42.89c-20.836-17.01-40.795-24.923-41.881-25.347
			c-8.954-3.488-18.86,2.219-20.315,11.73c-0.176,1.152-3.301,22.392,1.011,48.94c-26.549-4.312-47.788-1.187-48.941-1.01
			c-9.499,1.453-15.224,11.352-11.729,20.314c0.423,1.086,8.336,21.045,25.346,41.881c-25.148,9.54-41.979,22.864-42.89,23.593
			c-7.502,6.01-7.508,17.444,0,23.459c0.902,0.722,17.427,13.807,42.19,23.326c-16.024,17.857-23.601,32.425-24.015,33.232
			c-4.664,9.092,0.929,20.09,11,21.702c2.136,0.341,52.847,8.08,96.503-17.125c13.75-7.939,25.003-18.119,34.015-28.402v76.776
			H105.705c-8.3,0-15.029,6.729-15.029,15.029v30.059c0,20.651,13.959,38.091,32.935,43.41l27.632,110.53
			c1.672,6.69,7.684,11.384,14.581,11.384h180.354c6.896,0,12.908-4.694,14.581-11.384l27.632-110.53
			c18.974-5.32,32.935-22.761,32.935-43.41v-30.059c0-8.3-6.729-15.029-15.029-15.029H271.029v-76.776
			c9.012,10.283,20.265,20.463,34.015,28.402c29.708,17.152,69.657,21.412,96.503,17.125c10.091-1.614,15.655-12.627,11-21.702
			c-0.414-0.807-7.991-15.375-24.015-33.232c24.763-9.519,41.288-22.604,42.19-23.326
			C438.224,186.069,438.23,174.635,430.722,168.62z M334.445,481.942H177.559l-22.544-90.177h201.973L334.445,481.942z
			 M391.267,331.647v15.029c0,8.287-6.742,15.029-15.029,15.029H135.766c-8.287,0-15.029-6.742-15.029-15.029v-15.029H391.267z
			 M356.906,193.388c-12.308,2.367-16.463,17.928-6.999,26.122c8.77,7.593,15.855,15.229,21.341,21.909
			c-14.818-0.884-33.905-4.267-51.173-14.236c-29.412-16.981-45.116-48.599-49.044-57.394v-49.557c0-8.3-6.729-15.029-15.029-15.029
			c-8.3,0-15.029,6.729-15.029,15.029v49.585c-3.896,8.811-19.413,40.258-49.044,57.365c-17.142,9.896-36.256,13.275-51.121,14.174
			c5.479-6.667,12.547-14.278,21.29-21.847c9.476-8.204,5.293-23.759-6.999-26.122c-14.109-2.713-26.712-8.039-36.285-13.06
			c9.529-4.995,22.095-10.287,36.285-13.016c12.308-2.367,16.463-17.928,6.999-26.122c-10.848-9.391-19.091-20.288-24.87-29.415
			c10.796,0.441,24.354,2.131,37.908,6.829c11.838,4.107,23.223-7.295,19.123-19.122c-4.698-13.557-6.389-27.114-6.83-37.907
			c9.129,5.78,20.025,14.024,29.415,24.87c8.202,9.476,23.759,5.295,26.122-6.999c2.713-14.11,8.039-26.712,13.06-36.285
			c4.995,9.529,10.287,22.095,13.016,36.285c2.367,12.307,17.927,16.464,26.122,6.999c9.391-10.848,20.288-19.091,29.415-24.87
			c-0.441,10.796-2.131,24.354-6.829,37.908c-4.105,11.842,7.294,23.219,19.122,19.122c13.557-4.698,27.114-6.389,37.907-6.83
			c-5.78,9.129-14.023,20.025-24.87,29.415c-9.477,8.204-5.294,23.759,6.999,26.122c14.109,2.713,26.712,8.039,36.285,13.06
			C383.662,185.367,371.097,190.658,356.906,193.388z"/>
	</g>
</g>
<g>
</g>
<g>
</g>
<g>
</g>
<g>
</g>
<g>
</g>
<g>
</g>
<g>
</g>
<g>
</g>
<g>
</g>
<g>
</g>
<g>
</g>
<g>
</g>
<g>
</g>
<g>
</g>
<g>
</g>
</svg>
