<?xml version="1.0" encoding="iso-8859-1"?>
<!-- Generator: Adobe Illustrator 19.0.0, SVG Export Plug-In . SVG Version: 6.00 Build 0)  -->
<svg version="1.1" id="Capa_1" xmlns="http://www.w3.org/2000/svg" xmlns:xlink="http://www.w3.org/1999/xlink" x="0px" y="0px"
	 viewBox="0 0 512 512" style="enable-background:new 0 0 512 512;" xml:space="preserve">
<g>
	<g>
		<path d="M480.599,253.554C479,246.783,472.957,242,466,242h-30c-37.082,0-69.737,19.323-88.423,48.429
			c-3.116-38.457,3.813-70.669,11.84-86.721c3.042-6.083,1.609-13.452-3.489-17.954c-5.1-4.501-12.589-5.007-18.248-1.236
			c-6.078,4.052-12.21,8.58-18.279,13.543L286.628,77.927C295.461,69.705,301,57.99,301,45c0-24.813-20.187-45-45-45
			s-45,20.187-45,45c0,12.99,5.539,24.705,14.372,32.927L192.6,198.062c-6.069-4.963-12.201-9.491-18.279-13.543
			c-5.659-3.772-13.148-3.265-18.248,1.236c-5.099,4.501-6.531,11.87-3.489,17.954c7.993,15.986,14.962,48.187,11.84,86.721
			C145.737,261.323,113.082,242,76,242H46c-6.957,0-13,4.783-14.599,11.554c-1.598,6.771,1.668,13.752,7.891,16.863l6.334,3.167
			C69.052,285.296,85.042,306.916,89.635,332H76c-8.284,0-15,6.716-15,15s6.716,15,15,15h15.689C99.293,445.977,170.075,512,256,512
			s156.707-66.023,164.311-150H436c8.284,0,15-6.716,15-15s-6.716-15-15-15h-13.635c4.593-25.084,20.584-46.704,44.009-58.417
			l6.334-3.167C478.93,267.306,482.197,260.325,480.599,253.554z M324.406,332h-52.514c4.276-36.311,23.576-68.282,47.04-92.786
			C314.877,270.015,316.704,304.635,324.406,332z M256,30c8.271,0,15,6.729,15,15s-6.729,15-15,15s-15-6.729-15-15
			S247.729,30,256,30z M253.199,89.904c2.068,0.128,3.537,0.127,5.6,0l35.854,131.433c-15.301,16.547-28.949,35.971-38.654,57.634
			c-9.704-21.663-23.353-41.088-38.654-57.634L253.199,89.904z M193.068,239.214c23.464,24.504,42.764,56.475,47.04,92.786h-52.514
			C195.295,304.636,197.123,270.015,193.068,239.214z M94.16,274.223c27.837,6.948,49.553,29.497,55.318,57.777h-29.493
			C117.172,311.149,108.466,290.984,94.16,274.223z M256,482c-69.369,0-126.676-52.794-134.162-120.2c10.915,0,256.691,0,268.324,0
			C382.676,429.206,325.369,482,256,482z M392.014,332h-29.493c5.766-28.28,27.482-50.829,55.318-57.777
			C404.24,290.155,394.973,310.07,392.014,332z"/>
	</g>
</g>
<g>
</g>
<g>
</g>
<g>
</g>
<g>
</g>
<g>
</g>
<g>
</g>
<g>
</g>
<g>
</g>
<g>
</g>
<g>
</g>
<g>
</g>
<g>
</g>
<g>
</g>
<g>
</g>
<g>
</g>
</svg>
