<?xml version="1.0" encoding="iso-8859-1"?>
<!-- Generator: Adobe Illustrator 19.0.0, SVG Export Plug-In . SVG Version: 6.00 Build 0)  -->
<svg version="1.1" id="Capa_1" xmlns="http://www.w3.org/2000/svg" xmlns:xlink="http://www.w3.org/1999/xlink" x="0px" y="0px"
	 viewBox="0 0 512 512" style="enable-background:new 0 0 512 512;" xml:space="preserve">
<g>
	<g>
		<circle cx="438.73" cy="73.04" r="15"/>
	</g>
</g>
<g>
	<g>
		<path d="M491.877,20.124c-13.801-13.802-32.892-21.1-52.379-20.019c-19.487,1.079-37.656,10.439-49.848,25.679
			c-0.052,0.065-0.103,0.13-0.154,0.195L277.351,171.027c-0.06,0.059-0.126,0.108-0.186,0.168l-74.246,74.247l-10.607-10.607
			c-17.544-17.545-46.094-17.546-63.639,0c-5.344,5.344-118.91,118.91-124.279,124.279c-5.858,5.858-5.858,15.355,0,21.213
			c5.857,5.858,15.356,5.858,21.213,0l92.459-92.459l21.213,21.213L46.82,401.54c-5.858,5.858-5.858,15.355,0,21.213
			c5.857,5.858,15.356,5.858,21.213,0l92.46-92.459l21.214,21.213l-92.459,92.46c-5.858,5.858-5.858,15.355,0,21.213
			c5.857,5.858,15.356,5.858,21.213,0l92.459-92.459l21.213,21.213l-92.459,92.459c-5.858,5.858-5.858,15.355,0,21.213
			c5.857,5.858,15.356,5.858,21.213,0c5.075-5.075,118.29-118.29,124.279-124.279c17.589-17.589,17.588-46.052,0-63.639
			l-10.607-10.607l72.714-72.714c0.079-0.059,0.161-0.11,0.24-0.17l146.529-113.708c0.058-0.045,0.116-0.091,0.174-0.137
			c15.24-12.192,24.6-30.362,25.679-49.849C512.974,53.016,505.678,33.924,491.877,20.124z M255.952,362.114l-10.607,10.606
			L139.28,266.654l10.606-10.606c5.849-5.849,15.365-5.848,21.213,0l84.853,84.853C261.815,346.764,261.815,356.25,255.952,362.114z
			 M245.345,287.867l-21.213-21.213l63.64-63.64l21.213,21.213L245.345,287.867z M481.94,70.844
			c-0.615,11.104-5.723,21.05-14.386,28.017L331.57,204.386c-5.405-5.405-10.508-10.508-23.737-23.738L413.147,44.437
			c6.966-8.657,16.909-13.762,28.01-14.377c11.144-0.614,21.618,3.388,29.507,11.277C478.553,49.226,482.558,59.705,481.94,70.844z"
			/>
	</g>
</g>
<g>
</g>
<g>
</g>
<g>
</g>
<g>
</g>
<g>
</g>
<g>
</g>
<g>
</g>
<g>
</g>
<g>
</g>
<g>
</g>
<g>
</g>
<g>
</g>
<g>
</g>
<g>
</g>
<g>
</g>
</svg>
