<?xml version="1.0" encoding="iso-8859-1"?>
<!-- Generator: Adobe Illustrator 19.0.0, SVG Export Plug-In . SVG Version: 6.00 Build 0)  -->
<svg version="1.1" id="Capa_1" xmlns="http://www.w3.org/2000/svg" xmlns:xlink="http://www.w3.org/1999/xlink" x="0px" y="0px"
	 viewBox="0 0 512 512" style="enable-background:new 0 0 512 512;" xml:space="preserve">
<g>
	<g>
		<path d="M479.417,82.708c1.004-2.008,1.564-4.28,1.579-6.612c0-0.032,0.005-0.063,0.005-0.096V15H481c0-8.284-6.716-15-15-15H46
			c-8.284,0-15,6.716-15,15v61c0,0.032,0.005,0.064,0.005,0.096c0.013,2.06,0.438,4.055,1.274,5.951
			c0.098,0.222,0.195,0.443,0.304,0.661L61,139.541v232.918l-28.417,56.833c-0.969,1.937-1.563,4.231-1.579,6.612
			c0,0.032-0.005,0.063-0.005,0.096v61c0,8.284,6.716,15,15,15h420c8.284,0,15-6.716,15-15v-61c0-0.032-0.005-0.064-0.005-0.096
			c-0.015-2.305-0.576-4.606-1.579-6.612L451,372.459V139.541L479.417,82.708z M451,482H61v-31h390V482z M89.417,129.292L70.271,91
			H441.73l-19.146,38.292c-1.042,2.083-1.583,4.38-1.583,6.708v240c-0.001,2.329,0.541,4.625,1.582,6.708L441.729,421H70.271
			l19.146-38.292C90.458,380.625,91,378.329,91,376V136C91,133.671,90.458,131.375,89.417,129.292z M61,61V30h390v31H61z"/>
	</g>
</g>
<g>
	<g>
		<path d="M256,121c-74.439,0-135,60.561-135,135c0,23.345,5.959,45.324,16.432,64.5c0.318,0.685,0.686,1.34,1.1,1.965
			C161.758,363.354,205.709,391,256,391c50.292,0,94.242-27.646,117.469-68.535c0.414-0.625,0.782-1.28,1.1-1.965
			C385.041,301.324,391,279.345,391,256C391,181.561,330.439,121,256,121z M256,361c-37.838,0-71.063-20.121-89.545-50.223
			C168.914,296.6,181.193,286,196,286c3.739,0,7.487,0.744,11.142,2.212c3.977,1.597,8.446,1.417,12.281-0.494
			c3.835-1.911,6.669-5.371,7.789-9.507C230.75,265.133,242.588,256,256,256s25.25,9.133,28.788,22.21
			c1.119,4.136,3.954,7.596,7.789,9.507c3.835,1.911,8.304,2.091,12.28,0.495C308.512,286.744,312.261,286,316,286
			c14.807,0,27.085,10.6,29.545,24.777C327.063,340.879,293.838,361,256,361z M359.376,274.448C348.455,263.049,333.067,256,316,256
			c-2.653,0-5.296,0.18-7.922,0.538C297.633,238.028,277.867,226,256,226s-41.633,12.028-52.079,30.538
			C201.296,256.18,198.653,256,196,256c-17.067,0-32.455,7.049-43.376,18.448C151.558,268.457,151,262.293,151,256
			c0-57.897,47.103-105,105-105c57.897,0,105,47.103,105,105C361,262.293,360.442,268.458,359.376,274.448z"/>
	</g>
</g>
<g>
</g>
<g>
</g>
<g>
</g>
<g>
</g>
<g>
</g>
<g>
</g>
<g>
</g>
<g>
</g>
<g>
</g>
<g>
</g>
<g>
</g>
<g>
</g>
<g>
</g>
<g>
</g>
<g>
</g>
</svg>
