<?xml version="1.0" encoding="iso-8859-1"?>
<!-- Generator: Adobe Illustrator 19.0.0, SVG Export Plug-In . SVG Version: 6.00 Build 0)  -->
<svg version="1.1" id="Capa_1" xmlns="http://www.w3.org/2000/svg" xmlns:xlink="http://www.w3.org/1999/xlink" x="0px" y="0px"
	 viewBox="0 0 512 512" style="enable-background:new 0 0 512 512;" xml:space="preserve">
<g>
	<g>
		<path d="M467,181c-3.163,0-443.674,0-452,0c-6.067,0-11.537,3.655-13.858,9.26c-2.321,5.605-1.038,12.057,3.252,16.347
			l71.013,71.013l12.76,192.374c1.57,23.555,21.293,42.006,44.9,42.006H347.85c23.217,0,42.467-17.421,44.778-40.528L418.58,211H467
			c8.271,0,15,6.729,15,15v120c0,8.284,6.716,15,15,15s15-6.716,15-15V226C512,201.187,491.813,181,467,181z M362.776,468.493
			c-0.77,7.7-7.186,13.507-14.926,13.507H133.067c-7.869,0-14.443-6.151-14.966-13.997l-13.133-197.996
			c-0.241-3.627-1.791-7.043-4.361-9.614L51.214,211h337.218L362.776,468.493z"/>
	</g>
</g>
<g>
	<g>
		<path d="M255,301h-30c-8.284,0-15,6.716-15,15s6.716,15,15,15h30c8.284,0,15-6.716,15-15S263.284,301,255,301z"/>
	</g>
</g>
<g>
	<g>
		<path d="M255,241h-30c-8.284,0-15,6.716-15,15s6.716,15,15,15h30c8.284,0,15-6.716,15-15S263.284,241,255,241z"/>
	</g>
</g>
<g>
	<g>
		<path d="M255,361h-30c-8.284,0-15,6.716-15,15s6.716,15,15,15h30c8.284,0,15-6.716,15-15S263.284,361,255,361z"/>
	</g>
</g>
<g>
	<g>
		<path d="M255,421h-30c-8.284,0-15,6.716-15,15s6.716,15,15,15h30c8.284,0,15-6.716,15-15S263.284,421,255,421z"/>
	</g>
</g>
<g>
	<g>
		<path d="M274.678,34.422c-11.589-16.116-23.032-28.904-23.514-29.44C248.319,1.811,244.26,0,240,0s-8.319,1.811-11.164,4.982
			c-0.481,0.536-11.924,13.325-23.514,29.44C188.283,58.116,180,76.296,180,90c0,33.02,26.677,61,60,61c33.358,0,60-28.006,60-61
			C300,76.295,291.717,58.116,274.678,34.422z M240,121c-16.262,0-30-14.196-30-31c0-9.559,14.095-31.886,29.994-51.767
			C255.935,58.222,270,80.708,270,90C270,106.804,256.262,121,240,121z"/>
	</g>
</g>
<g>
</g>
<g>
</g>
<g>
</g>
<g>
</g>
<g>
</g>
<g>
</g>
<g>
</g>
<g>
</g>
<g>
</g>
<g>
</g>
<g>
</g>
<g>
</g>
<g>
</g>
<g>
</g>
<g>
</g>
</svg>
