<?xml version="1.0" encoding="iso-8859-1"?>
<!-- Generator: Adobe Illustrator 19.0.0, SVG Export Plug-In . SVG Version: 6.00 Build 0)  -->
<svg version="1.1" id="Capa_1" xmlns="http://www.w3.org/2000/svg" xmlns:xlink="http://www.w3.org/1999/xlink" x="0px" y="0px"
	 viewBox="0 0 512 512" style="enable-background:new 0 0 512 512;" xml:space="preserve">
<g>
	<g>
		<path d="M421,165h-15.748c-3.005-30.125-14.961-57.651-33.161-79.879l11.187-11.187c5.858-5.858,5.858-15.355,0-21.213
			c-5.857-5.858-15.355-5.858-21.213,0l-11.187,11.188c-22.228-18.2-49.754-30.156-79.879-33.16V15c0-8.284-6.716-15-15-15
			s-15,6.716-15,15v15.748c-30.125,3.005-57.651,14.961-79.879,33.161l-11.188-11.188c-5.857-5.858-15.355-5.858-21.213,0
			c-5.858,5.858-5.858,15.355,0,21.213l11.188,11.187c-18.2,22.228-30.156,49.754-33.16,79.878H91c-8.284,0-15,6.716-15,15
			s6.716,15,15,15h15.756c2.721,27.41,12.852,53.247,29.207,75H106c-8.284,0-15,6.716-15,15v32c0,20.417,13.672,37.69,32.338,43.174
			l27.953,139.768C152.693,506.953,158.85,512,166,512h180c7.15,0,13.307-5.047,14.708-12.058l27.953-139.768
			C407.328,354.69,421,337.417,421,317v-32c0-8.284-6.716-15-15-15h-29.963c16.355-21.753,26.486-47.59,29.207-75H421
			c8.284,0,15-6.716,15-15S429.284,165,421,165z M376,180c0,34.671-14.753,67.179-40.64,90h-6.9
			c11.293-25.594,17.54-57.084,17.54-90c0-38.055-8.093-72.379-21.629-98.559C355.549,103.135,376,139.222,376,180z M271,64.235
			c9.019,5.065,17.662,14.524,24.921,27.59C308.869,115.132,316,146.447,316,180c0,34.607-7.633,66.878-21.11,90H271V64.235z
			 M216.079,91.825C223.338,78.759,231.981,69.3,241,64.235V270h-23.89C203.633,246.878,196,214.607,196,180
			C196,146.447,203.131,115.132,216.079,91.825z M187.629,81.441C174.093,107.621,166,141.945,166,180
			c0,32.916,6.247,64.406,17.54,90h-6.9C150.753,247.179,136,214.671,136,180C136,139.222,156.451,103.135,187.629,81.441z
			 M333.703,482H178.297l-24-120h203.406L333.703,482z M391,300v17c0,8.271-6.729,15-15,15h-0.02c-0.038,0-0.077,0-0.115,0H136.131
			c-0.036,0-0.072,0-0.108,0H136c-8.271,0-15-6.729-15-15v-17C122.013,300,386.083,300,391,300z"/>
	</g>
</g>
<g>
</g>
<g>
</g>
<g>
</g>
<g>
</g>
<g>
</g>
<g>
</g>
<g>
</g>
<g>
</g>
<g>
</g>
<g>
</g>
<g>
</g>
<g>
</g>
<g>
</g>
<g>
</g>
<g>
</g>
</svg>
